<svg width="18" height="18" viewBox="0 0 18 18" fill="none" xmlns="http://www.w3.org/2000/svg">
<g clip-path="url(#clip0_102_1334)">
<rect x="0.75" y="1.5" width="16.5" height="15" fill="#3A1D1C"/>
<path d="M16.5938 0H1.40625C0.62955 0 0 0.62955 0 1.40625V16.5938C0 17.3704 0.62955 18 1.40625 18H16.5938C17.3704 18 18 17.3704 18 16.5938V1.40625C18 0.62955 17.3704 0 16.5938 0ZM9 14.0625C8.55675 14.0625 8.12273 14.0315 7.70123 13.9718C7.27928 14.2692 4.84147 15.9816 4.61137 16.0137C4.61137 16.0137 4.51702 16.0504 4.43677 16.0031C4.35652 15.9559 4.37108 15.832 4.37108 15.832C4.39523 15.6671 5.00302 13.5683 5.11507 13.182C3.05617 12.162 1.6875 10.3555 1.6875 8.29688C1.6875 5.1126 4.9614 2.53125 9 2.53125C13.0386 2.53125 16.3125 5.1126 16.3125 8.29688C16.3125 11.4811 13.0386 14.0625 9 14.0625ZM6.0372 7.4004H5.37892V9.90668C5.37892 10.1289 5.1897 10.3096 4.95705 10.3096C4.7244 10.3096 4.53517 10.1289 4.53517 9.90668V7.4004H3.8769C3.6486 7.4004 3.4629 7.21507 3.4629 6.9873C3.4629 6.75952 3.64867 6.5742 3.8769 6.5742H6.0372C6.2655 6.5742 6.4512 6.75952 6.4512 6.9873C6.4512 7.21507 6.26542 7.4004 6.0372 7.4004ZM14.2781 9.61785C14.3116 9.66198 14.3361 9.71234 14.35 9.76599C14.3639 9.81964 14.367 9.87551 14.3591 9.93038C14.3516 9.98528 14.3332 10.0381 14.3051 10.0859C14.277 10.1337 14.2397 10.1754 14.1954 10.2086C14.1224 10.264 14.0333 10.294 13.9417 10.2938C13.8763 10.2941 13.8118 10.279 13.7533 10.2499C13.6948 10.2208 13.6439 10.1784 13.6047 10.126L12.6153 8.81512L12.4689 8.96152V9.882C12.4688 9.99389 12.4243 10.1012 12.3451 10.1803C12.266 10.2594 12.1588 10.3039 12.0469 10.3041C11.935 10.304 11.8278 10.2595 11.7487 10.1804C11.6696 10.1013 11.6251 9.99408 11.625 9.88223V6.99608C11.625 6.76343 11.8142 6.5742 12.0469 6.5742C12.2795 6.5742 12.4688 6.76343 12.4688 6.99608V7.90282L13.6458 6.72578C13.7063 6.66525 13.7895 6.63187 13.8798 6.63187C13.9851 6.63187 14.0908 6.67733 14.1701 6.75645C14.244 6.83025 14.2881 6.92528 14.2942 7.0239C14.3003 7.12343 14.2672 7.21455 14.2011 7.28077L13.2397 8.24205L14.2781 9.61785ZM8.01547 6.99112C7.94422 6.7887 7.7283 6.5805 7.45275 6.57435C7.17803 6.58058 6.9621 6.7887 6.891 6.99067L5.88188 9.6468C5.75378 10.0447 5.8656 10.1922 5.98185 10.2459C6.06602 10.2844 6.1575 10.3042 6.25005 10.3041C6.426 10.3041 6.56047 10.2327 6.6009 10.118L6.80992 9.57075L8.09633 9.57082L8.3052 10.1177C8.34577 10.2326 8.48033 10.304 8.65628 10.304C8.74881 10.3041 8.84028 10.2843 8.92447 10.2459C9.0408 10.1924 9.15255 10.0448 9.02415 9.64598L8.01547 6.99112ZM7.03177 8.8236L7.45312 7.62653L7.87448 8.8236H7.03177ZM11.461 9.8613C11.461 10.0745 11.2796 10.248 11.0566 10.248H9.70312C9.48015 10.248 9.2988 10.0745 9.2988 9.8613V6.99608C9.2988 6.76343 9.492 6.5742 9.72945 6.5742C9.9669 6.5742 10.1601 6.76343 10.1601 6.99608V9.4746H11.0566C11.2796 9.4746 11.461 9.64815 11.461 9.8613Z" fill="#F9E000"/>
</g>
<defs>
<clipPath id="clip0_102_1334">
<rect width="18" height="18" fill="white"/>
</clipPath>
</defs>
</svg>
