<svg width="40" height="40" viewBox="0 0 40 40" fill="none" xmlns="http://www.w3.org/2000/svg">
<path d="M14.4531 23.8834C14.4531 26.0334 16.1031 27.7667 18.1531 27.7667H22.3365C24.1198 27.7667 25.5698 26.2501 25.5698 24.3834C25.5698 22.3501 24.6865 21.6334 23.3698 21.1667L16.6531 18.8334C15.3365 18.3667 14.4531 17.6501 14.4531 15.6167C14.4531 13.7501 15.9031 12.2334 17.6865 12.2334H21.8698C23.9198 12.2334 25.5698 13.9667 25.5698 16.1167" stroke="#DBDBDB" stroke-width="1.5" stroke-linecap="round" stroke-linejoin="round"/>
<path d="M20 10V30" stroke="#DBDBDB" stroke-width="1.5" stroke-linecap="round" stroke-linejoin="round"/>
<path d="M19.9997 36.6663C29.2044 36.6663 36.6663 29.2044 36.6663 19.9997C36.6663 10.7949 29.2044 3.33301 19.9997 3.33301C10.7949 3.33301 3.33301 10.7949 3.33301 19.9997C3.33301 29.2044 10.7949 36.6663 19.9997 36.6663Z" stroke="#DBDBDB" stroke-width="1.5" stroke-linecap="round" stroke-linejoin="round"/>
</svg>
