<svg width="40" height="40" viewBox="0 0 40 40" fill="none" xmlns="http://www.w3.org/2000/svg">
<path d="M36.667 9.99967V14.033C36.667 16.6663 35.0003 18.333 32.367 18.333H26.667V6.68301C26.667 4.83301 28.1837 3.33301 30.0337 3.33301C31.8504 3.34967 33.517 4.08301 34.717 5.28301C35.917 6.49967 36.667 8.16634 36.667 9.99967Z" fill="#DBDBDB"/>
<path d="M3.33301 11.6663V34.9997C3.33301 36.383 4.89963 37.1663 5.99963 36.333L8.84967 34.1997C9.51634 33.6997 10.4497 33.7663 11.0497 34.3663L13.8163 37.1497C14.4663 37.7997 15.533 37.7997 16.183 37.1497L18.983 34.3497C19.5664 33.7663 20.4997 33.6997 21.1497 34.1997L23.9997 36.333C25.0997 37.1497 26.6663 36.3663 26.6663 34.9997V6.66634C26.6663 4.83301 28.1663 3.33301 29.9997 3.33301H11.6663H9.99967C4.99967 3.33301 3.33301 6.31634 3.33301 9.99967V11.6663Z" fill="#DBDBDB"/>
</svg>
