<svg width="40" height="40" viewBox="0 0 40 40" fill="none" xmlns="http://www.w3.org/2000/svg">
<path d="M25.983 20.6667V27.45C25.983 28.05 25.9163 28.6167 25.7663 29.1333C25.1497 31.5833 23.1163 33.1167 20.3163 33.1167H15.783L10.7497 36.4667C9.99967 36.9833 8.99967 36.4333 8.99967 35.5333V33.1167C7.29967 33.1167 5.88301 32.55 4.89967 31.5667C3.89967 30.5667 3.33301 29.15 3.33301 27.45V20.6667C3.33301 17.5 5.29967 15.3167 8.33301 15.0333C8.54967 15.0167 8.76634 15 8.99967 15H20.3163C23.7163 15 25.983 17.2667 25.983 20.6667Z" fill="#DBDBDB"/>
<path d="M29.583 25.9997C31.6997 25.9997 33.483 25.2997 34.7163 24.0497C35.9663 22.8163 36.6663 21.033 36.6663 18.9163V10.4163C36.6663 6.49967 33.4997 3.33301 29.583 3.33301H15.4163C11.4997 3.33301 8.33301 6.49967 8.33301 10.4163V11.6663C8.33301 12.133 8.69967 12.4997 9.16634 12.4997H20.3163C24.833 12.4997 28.483 16.1497 28.483 20.6663V25.1663C28.483 25.633 28.8497 25.9997 29.3163 25.9997H29.583Z" fill="#DBDBDB"/>
</svg>
