<svg width="40" height="40" viewBox="0 0 40 40" fill="none" xmlns="http://www.w3.org/2000/svg">
<path d="M5.0166 18.7002V26.1835C5.0166 33.6669 8.0166 36.6669 15.4999 36.6669H24.4833C31.9666 36.6669 34.9666 33.6669 34.9666 26.1835V18.7002" stroke="#DBDBDB" stroke-width="1.5" stroke-linecap="round" stroke-linejoin="round"/>
<path d="M20.0005 19.9997C23.0505 19.9997 25.3005 17.5163 25.0005 14.4663L23.9005 3.33301H16.1171L15.0005 14.4663C14.7005 17.5163 16.9505 19.9997 20.0005 19.9997Z" stroke="#DBDBDB" stroke-width="1.5" stroke-linecap="round" stroke-linejoin="round"/>
<path d="M30.5163 19.9997C33.883 19.9997 36.3497 17.2663 36.0163 13.9163L35.5497 9.33301C34.9497 4.99967 33.283 3.33301 28.9163 3.33301H23.833L24.9997 15.0163C25.283 17.7663 27.7663 19.9997 30.5163 19.9997Z" stroke="#DBDBDB" stroke-width="1.5" stroke-linecap="round" stroke-linejoin="round"/>
<path d="M9.40029 19.9997C12.1503 19.9997 14.6336 17.7663 14.9003 15.0163L15.267 11.333L16.067 3.33301H10.9836C6.61696 3.33301 4.95029 4.99967 4.35029 9.33301L3.90029 13.9163C3.56696 17.2663 6.03363 19.9997 9.40029 19.9997Z" stroke="#DBDBDB" stroke-width="1.5" stroke-linecap="round" stroke-linejoin="round"/>
<path d="M19.9997 28.333C17.2163 28.333 15.833 29.7163 15.833 32.4997V36.6663H24.1663V32.4997C24.1663 29.7163 22.783 28.333 19.9997 28.333Z" stroke="#DBDBDB" stroke-width="1.5" stroke-linecap="round" stroke-linejoin="round"/>
</svg>
