<svg width="40" height="40" viewBox="0 0 40 40" fill="none" xmlns="http://www.w3.org/2000/svg">
<path d="M23.7699 26.6631H15.4365" stroke="#191919" stroke-width="1.5" stroke-miterlimit="10" stroke-linecap="round" stroke-linejoin="round"/>
<path d="M21.0999 4.19657L21.0499 4.31323L16.2166 15.5299H11.4666C10.3333 15.5299 9.24993 15.7632 8.2666 16.1799L11.1833 9.21323L11.2499 9.04657L11.3666 8.7799C11.3999 8.6799 11.4333 8.5799 11.4833 8.49657C13.6666 3.44657 16.1333 2.29657 21.0999 4.19657Z" fill="#DBDBDB"/>
<path d="M30.0835 15.8639C29.3335 15.6306 28.5335 15.5306 27.7335 15.5306H16.2168L21.0501 4.31393L21.1001 4.19727C21.3501 4.2806 21.5835 4.39727 21.8335 4.49727L25.5168 6.04727C27.5668 6.89727 29.0001 7.7806 29.8668 8.84727C30.0335 9.04727 30.1668 9.2306 30.2835 9.44727C30.4335 9.6806 30.5501 9.91393 30.6168 10.1639C30.6835 10.3139 30.7335 10.4639 30.7668 10.5973C31.2168 11.9973 30.9501 13.7139 30.0835 15.8639Z" fill="#DBDBDB"/>
<path d="M35.8692 23.6636V26.9136C35.8692 27.2469 35.8525 27.5803 35.8359 27.9136C35.5192 33.7303 32.2692 36.6636 26.1025 36.6636H13.1025C12.7025 36.6636 12.3025 36.6303 11.9192 36.5803C6.61921 36.2303 3.78587 33.3969 3.43587 28.0969C3.38587 27.7136 3.35254 27.3136 3.35254 26.9136V23.6636C3.35254 20.3136 5.38587 17.4303 8.28587 16.1803C9.28587 15.7636 10.3525 15.5303 11.4859 15.5303H27.7525C28.5692 15.5303 29.3692 15.6469 30.1025 15.8636C33.4192 16.8803 35.8692 19.9803 35.8692 23.6636Z" fill="#DBDBDB"/>
<path d="M11.183 9.21387L8.26634 16.1805C5.36634 17.4305 3.33301 20.3139 3.33301 23.6639V18.7805C3.33301 14.0472 6.69967 10.0972 11.183 9.21387Z" fill="#DBDBDB"/>
<path d="M35.8643 18.7798V23.6631C35.8643 19.9964 33.431 16.8798 30.0977 15.8798C30.9643 13.7131 31.2143 12.0131 30.7977 10.5964C30.7643 10.4464 30.7143 10.2964 30.6477 10.1631C33.7477 11.7631 35.8643 15.0464 35.8643 18.7798Z" fill="#DBDBDB"/>
<path d="M23.3333 25H15" stroke="white" stroke-width="1.5" stroke-miterlimit="10" stroke-linecap="round" stroke-linejoin="round"/>
</svg>
