<svg width="40" height="40" viewBox="0 0 40 40" fill="none" xmlns="http://www.w3.org/2000/svg">
<g opacity="0.8">
<rect width="40" height="40" fill="white"/>
<path d="M34.7332 7.68345C33.8819 6.83179 32.8712 6.15619 31.7588 5.69525C30.6464 5.23432 29.454 4.99707 28.2499 4.99707C27.0457 4.99707 25.8534 5.23432 24.7409 5.69525C23.6285 6.15619 22.6178 6.83179 21.7665 7.68345L19.9999 9.45011L18.2332 7.68345C16.5137 5.96396 14.1816 4.99796 11.7499 4.99796C9.31815 4.99796 6.98603 5.96396 5.26654 7.68345C3.54705 9.40293 2.58105 11.7351 2.58105 14.1668C2.58105 16.5985 3.54705 18.9306 5.26654 20.6501L7.03321 22.4168L19.9999 35.3834L32.9665 22.4168L34.7332 20.6501C35.5849 19.7989 36.2605 18.7881 36.7214 17.6757C37.1823 16.5633 37.4196 15.3709 37.4196 14.1668C37.4196 12.9626 37.1823 11.7703 36.7214 10.6579C36.2605 9.54542 35.5849 8.53471 34.7332 7.68345Z" fill="#DBDBDB"/>
</g>
</svg>
