<svg width="29" height="38" viewBox="0 0 29 38" fill="none" xmlns="http://www.w3.org/2000/svg">
<path d="M8.37891 34.3457H7.3584V30.7256H5.52148V29.8984H7.3584V27.2988H8.37891V34.3457ZM0.365234 32.3369C0.848633 32.1722 1.27116 31.9323 1.63281 31.6172C1.99805 31.2985 2.27734 30.9333 2.4707 30.5215C2.66406 30.1097 2.76074 29.6836 2.76074 29.2432V28.8672H0.676758V28.0293H5.86523V28.8672H3.80273V29.2432C3.79915 29.6442 3.89046 30.0363 4.07666 30.4194C4.26644 30.8026 4.53678 31.1445 4.8877 31.4453C5.23861 31.7461 5.65039 31.9753 6.12305 32.1328L5.59668 32.9492C5.06673 32.763 4.60482 32.4873 4.21094 32.1221C3.81706 31.7568 3.5127 31.3307 3.29785 30.8438C3.08659 31.3809 2.77327 31.8517 2.35791 32.2563C1.94613 32.661 1.45736 32.9635 0.891602 33.1641L0.365234 32.3369ZM2.12695 33.7119H3.14746V35.8818H8.63672V36.709H2.12695V33.7119ZM13.3955 29.7373C13.3919 30.3174 13.4976 30.8885 13.7124 31.4507C13.9308 32.0129 14.2334 32.5124 14.6201 32.9492C15.0104 33.3825 15.4508 33.7083 15.9414 33.9268L15.3291 34.7324C14.7812 34.471 14.2961 34.0843 13.8735 33.5723C13.451 33.0602 13.1252 32.473 12.896 31.8105C12.6704 32.5267 12.341 33.1587 11.9077 33.7065C11.478 34.2544 10.9785 34.668 10.4092 34.9473L9.78613 34.0879C10.2839 33.8695 10.7279 33.5347 11.1182 33.0835C11.5085 32.6287 11.8128 32.1095 12.0312 31.5259C12.2533 30.9386 12.3643 30.3424 12.3643 29.7373V28.0938H13.3955V29.7373ZM16.8115 27.2881H17.832V36.9346H16.8115V27.2881ZM27.3281 36.9131H26.3076V27.2881H27.3281V36.9131ZM19.4219 34.292C20.582 34.2848 21.4629 34.2741 22.0645 34.2598V33.293C21.6921 33.2428 21.3662 33.139 21.0869 32.9814C20.8076 32.8239 20.5928 32.6216 20.4424 32.3745C20.292 32.1274 20.2168 31.8499 20.2168 31.542C20.2168 31.1839 20.3135 30.8688 20.5068 30.5967C20.7002 30.3245 20.9741 30.1133 21.3286 29.9629C21.6831 29.8125 22.0895 29.7373 22.5479 29.7373C23.0133 29.7373 23.4251 29.8125 23.7832 29.9629C24.1413 30.1133 24.4206 30.3245 24.6211 30.5967C24.8216 30.8688 24.9219 31.1839 24.9219 31.542C24.9219 31.8464 24.8449 32.1221 24.6909 32.3691C24.5405 32.6126 24.3257 32.8132 24.0464 32.9707C23.7707 33.1283 23.4466 33.2339 23.0742 33.2876V34.2222C24.1055 34.172 24.9863 34.0986 25.7168 34.002L25.792 34.7646C24.8932 34.915 23.9587 35.0153 22.9883 35.0654C22.0179 35.1156 20.992 35.1406 19.9106 35.1406H19.5615L19.4219 34.292ZM19.626 28.4375H22.0645V27.3096H23.085V28.4375H25.502V29.2539H19.626V28.4375ZM21.1836 31.542C21.18 31.7425 21.2337 31.918 21.3447 32.0684C21.4593 32.2152 21.6187 32.3298 21.8228 32.4121C22.0304 32.4909 22.2668 32.5303 22.5317 32.5303C22.811 32.5303 23.0563 32.4909 23.2676 32.4121C23.4824 32.3333 23.6489 32.2205 23.7671 32.0737C23.8853 31.9233 23.9443 31.7461 23.9443 31.542C23.9443 31.3379 23.8853 31.1606 23.7671 31.0103C23.6525 30.8563 23.4896 30.7381 23.2783 30.6558C23.0671 30.5734 22.8236 30.5322 22.5479 30.5322C22.2793 30.5322 22.0412 30.5734 21.8335 30.6558C21.6258 30.7381 21.4647 30.8563 21.3501 31.0103C21.2355 31.1606 21.18 31.3379 21.1836 31.542Z" fill="#999999"/>
<path d="M6.01001 11.2202V15.7102C6.01001 20.2002 7.81001 22.0002 12.3 22.0002H17.69C22.18 22.0002 23.98 20.2002 23.98 15.7102V11.2202" stroke="#999999" stroke-width="1.5" stroke-linecap="round" stroke-linejoin="round"/>
<path d="M15 12C16.83 12 18.18 10.51 18 8.68L17.34 2H12.67L12 8.68C11.82 10.51 13.17 12 15 12Z" stroke="#999999" stroke-width="1.5" stroke-linecap="round" stroke-linejoin="round"/>
<path d="M21.31 12C23.33 12 24.81 10.36 24.61 8.35L24.33 5.6C23.97 3 22.97 2 20.35 2H17.3L18 9.01C18.17 10.66 19.66 12 21.31 12Z" stroke="#999999" stroke-width="1.5" stroke-linecap="round" stroke-linejoin="round"/>
<path d="M8.63988 12C10.2899 12 11.7799 10.66 11.9399 9.01L12.1599 6.8L12.6399 2H9.58988C6.96988 2 5.96988 3 5.60988 5.6L5.33988 8.35C5.13988 10.36 6.61988 12 8.63988 12Z" stroke="#999999" stroke-width="1.5" stroke-linecap="round" stroke-linejoin="round"/>
<path d="M15 17C13.33 17 12.5 17.83 12.5 19.5V22H17.5V19.5C17.5 17.83 16.67 17 15 17Z" stroke="#999999" stroke-width="1.5" stroke-linecap="round" stroke-linejoin="round"/>
</svg>
