<svg width="24" height="40" viewBox="0 0 24 40" fill="none" xmlns="http://www.w3.org/2000/svg">
<path d="M10.3789 30.2988H9.3584V32.0068H7.26904C7.3335 31.6846 7.37109 31.3408 7.37109 30.9863H2.9668V31.8242H6.26465C6.08203 33.3765 4.75 34.6011 2.47266 35.251L2.88086 36.0459C4.96484 35.4497 6.40967 34.3594 7.03271 32.8125H9.3584V33.9834H6.93066V34.8213H9.3584V35.9922H10.3789V30.2988ZM3.96582 37.9795C3.96582 39.1504 5.2334 39.8701 7.20996 39.8701C9.15967 39.8701 10.438 39.1504 10.4434 37.9795C10.438 36.814 9.15967 36.105 7.20996 36.0996C5.2334 36.105 3.96582 36.814 3.96582 37.9795ZM4.97559 37.9795C4.97559 37.292 5.83496 36.8999 7.20996 36.9053C8.55811 36.8999 9.41748 37.292 9.42285 37.9795C9.41748 38.6562 8.55811 39.0483 7.20996 39.0537C5.83496 39.0483 4.97559 38.6562 4.97559 37.9795ZM20.1436 30.2881H19.166V34.0586H17.9736V30.4707H17.0068V39.4404H17.9736V34.8965H19.166V39.9131H20.1436V30.2881ZM12.1836 37.3779H15.9219V31.373H12.1836V37.3779ZM13.1504 36.5615V32.1787H14.9658V36.5615H13.1504Z" fill="#F5535D"/>
<path d="M8.67188 14.3298C8.67188 15.6198 9.66188 16.6598 10.8919 16.6598H13.4019C14.4719 16.6598 15.3419 15.7498 15.3419 14.6298C15.3419 13.4098 14.8119 12.9798 14.0219 12.6998L9.99187 11.2998C9.20187 11.0198 8.67188 10.5898 8.67188 9.36984C8.67188 8.24984 9.54187 7.33984 10.6119 7.33984H13.1219C14.3519 7.33984 15.3419 8.37984 15.3419 9.66984" stroke="#F5535D" stroke-width="1.5" stroke-linecap="round" stroke-linejoin="round"/>
<path d="M12 6V18" stroke="#F5535D" stroke-width="1.5" stroke-linecap="round" stroke-linejoin="round"/>
<path d="M12 22C17.5228 22 22 17.5228 22 12C22 6.47715 17.5228 2 12 2C6.47715 2 2 6.47715 2 12C2 17.5228 6.47715 22 12 22Z" stroke="#F5535D" stroke-width="1.5" stroke-linecap="round" stroke-linejoin="round"/>
</svg>
