<svg width="24" height="40" viewBox="0 0 24 40" fill="none" xmlns="http://www.w3.org/2000/svg">
<path d="M5.2334 32.2314C5.2334 32.7399 5.31038 33.2376 5.46436 33.7246C5.62191 34.2116 5.85465 34.652 6.1626 35.0459C6.47054 35.4398 6.84115 35.7513 7.27441 35.9805L6.69434 36.7432C6.23958 36.5033 5.84749 36.1667 5.51807 35.7334C5.19222 35.3001 4.93978 34.8042 4.76074 34.2456C4.58529 34.8472 4.33464 35.3825 4.00879 35.8516C3.68652 36.3206 3.2998 36.6859 2.84863 36.9473L2.24707 36.1953C2.67676 35.9447 3.04378 35.6099 3.34814 35.1909C3.65251 34.7684 3.88167 34.3011 4.03564 33.7891C4.1932 33.277 4.27376 32.7578 4.27734 32.2314V31.877H2.49414V31.0283H4.27734V29.6318H5.2334V31.0283H6.98438V31.877H5.2334V32.2314ZM7.5752 29.4707H8.54199V33.1123H9.69141V29.2881H10.6689V38.9131H9.69141V33.9717H8.54199V38.4404H7.5752V29.4707ZM17.0391 30.8027H13.4404V31.8662H16.7705V32.6719H13.4404V33.7676H14.0259C14.8638 33.7676 15.562 33.7515 16.1206 33.7192C16.6792 33.6834 17.236 33.6172 17.791 33.5205L17.8984 34.3477C17.2718 34.4515 16.6416 34.5213 16.0078 34.5571C15.3776 34.5894 14.5594 34.6055 13.5532 34.6055H13.2041H12.4092V29.9863H17.0391V30.8027ZM13.3438 37.1191C13.3438 36.7467 13.4744 36.4281 13.7358 36.1631C13.9972 35.8981 14.3732 35.6958 14.8638 35.5562C15.3543 35.4165 15.9398 35.3467 16.6201 35.3467C17.2897 35.3467 17.8698 35.4165 18.3604 35.5562C18.8545 35.6958 19.234 35.8999 19.499 36.1685C19.764 36.4334 19.8965 36.7503 19.8965 37.1191C19.8965 37.4915 19.764 37.8102 19.499 38.0752C19.234 38.3438 18.8545 38.5461 18.3604 38.6821C17.8698 38.8218 17.2897 38.8916 16.6201 38.8916C15.9398 38.8916 15.3543 38.8218 14.8638 38.6821C14.3732 38.5461 13.9972 38.3455 13.7358 38.0806C13.4744 37.8156 13.3438 37.4951 13.3438 37.1191ZM14.3643 37.1191C14.3607 37.4307 14.5558 37.6724 14.9497 37.8442C15.3436 38.0161 15.9004 38.1038 16.6201 38.1074C17.3291 38.1038 17.8823 38.0161 18.2798 37.8442C18.6808 37.6724 18.8796 37.4307 18.876 37.1191C18.876 36.9186 18.7865 36.7467 18.6074 36.6035C18.432 36.4567 18.1759 36.3457 17.8394 36.2705C17.5063 36.1917 17.1107 36.1523 16.6523 36.1523C15.9219 36.1523 15.3561 36.2365 14.9551 36.4048C14.5576 36.5731 14.3607 36.8112 14.3643 37.1191ZM18.8223 29.2988H19.8428V35.2178H18.8223V29.2988Z" fill="#999999"/>
<path d="M15.59 12.4V16.47C15.59 16.83 15.55 17.17 15.46 17.48C15.09 18.95 13.87 19.87 12.19 19.87H9.47L6.45 21.88C6 22.19 5.4 21.86 5.4 21.32V19.87C4.38 19.87 3.53 19.53 2.94 18.94C2.34 18.34 2 17.49 2 16.47V12.4C2 10.5 3.18 9.19 5 9.02C5.13 9.01 5.26 9 5.4 9H12.19C14.23 9 15.59 10.36 15.59 12.4Z" fill="#999999"/>
<path d="M17.75 15.6C19.02 15.6 20.09 15.18 20.83 14.43C21.58 13.69 22 12.62 22 11.35V6.25C22 3.9 20.1 2 17.75 2H9.25C6.9 2 5 3.9 5 6.25V7C5 7.28 5.22 7.5 5.5 7.5H12.19C14.9 7.5 17.09 9.69 17.09 12.4V15.1C17.09 15.38 17.31 15.6 17.59 15.6H17.75Z" fill="#999999"/>
</svg>
