<svg width="24" height="40" viewBox="0 0 24 40" fill="none" xmlns="http://www.w3.org/2000/svg">
<path d="M10.3789 34.9922H9.3584V33.8213H6.93066V32.9834H9.3584V31.8125H7.03271C6.72477 32.5788 6.2181 33.234 5.5127 33.7783C4.80729 34.3226 3.93001 34.7451 2.88086 35.0459L2.47266 34.251C3.60775 33.9287 4.49935 33.4722 5.14746 32.8813C5.79915 32.2905 6.17155 31.6048 6.26465 30.8242H2.9668V29.9863H7.37109C7.37109 30.3265 7.33708 30.6667 7.26904 31.0068H9.3584V29.2988H10.3789V34.9922ZM3.96582 36.9795C3.96582 36.5964 4.09831 36.2633 4.36328 35.9805C4.62826 35.6976 5.00423 35.481 5.49121 35.3306C5.98177 35.1766 6.55469 35.0996 7.20996 35.0996C7.85807 35.0996 8.42562 35.1766 8.9126 35.3306C9.39958 35.481 9.77555 35.6976 10.0405 35.9805C10.3091 36.2633 10.4434 36.5964 10.4434 36.9795C10.4434 37.3662 10.3091 37.7028 10.0405 37.9893C9.77555 38.2721 9.39958 38.4888 8.9126 38.6392C8.42562 38.7931 7.85807 38.8701 7.20996 38.8701C6.55469 38.8701 5.98177 38.7931 5.49121 38.6392C5.00423 38.4888 4.62826 38.2721 4.36328 37.9893C4.09831 37.7028 3.96582 37.3662 3.96582 36.9795ZM4.97559 36.9795C4.97559 37.2015 5.0651 37.3931 5.24414 37.5542C5.42676 37.7153 5.68457 37.8389 6.01758 37.9248C6.35417 38.0107 6.75163 38.0537 7.20996 38.0537C7.65755 38.0537 8.04785 38.0107 8.38086 37.9248C8.71387 37.8389 8.96989 37.7153 9.14893 37.5542C9.33154 37.3931 9.42285 37.2015 9.42285 36.9795C9.42285 36.7539 9.33333 36.5605 9.1543 36.3994C8.97526 36.2383 8.72103 36.1165 8.3916 36.0342C8.06576 35.9482 7.68083 35.9053 7.23682 35.9053C6.53141 35.9053 5.97819 35.9984 5.57715 36.1846C5.17611 36.3708 4.97559 36.6357 4.97559 36.9795ZM20.1436 38.9131H19.166V33.8965H17.9736V38.4404H17.0068V29.4707H17.9736V33.0586H19.166V29.2881H20.1436V38.9131ZM12.1836 30.373H15.9219V36.3779H12.1836V30.373ZM14.9658 35.5615V31.1787H13.1504V35.5615H14.9658Z" fill="#999999"/>
<path d="M8.67188 14.3298C8.67188 15.6198 9.66188 16.6598 10.8919 16.6598H13.4019C14.4719 16.6598 15.3419 15.7498 15.3419 14.6298C15.3419 13.4098 14.8119 12.9798 14.0219 12.6998L9.99187 11.2998C9.20187 11.0198 8.67188 10.5898 8.67188 9.36984C8.67188 8.24984 9.54187 7.33984 10.6119 7.33984H13.1219C14.3519 7.33984 15.3419 8.37984 15.3419 9.66984" stroke="#999999" stroke-width="1.5" stroke-linecap="round" stroke-linejoin="round"/>
<path d="M12 6V18" stroke="#999999" stroke-width="1.5" stroke-linecap="round" stroke-linejoin="round"/>
<path d="M12 22C17.5228 22 22 17.5228 22 12C22 6.47715 17.5228 2 12 2C6.47715 2 2 6.47715 2 12C2 17.5228 6.47715 22 12 22Z" stroke="#999999" stroke-width="1.5" stroke-linecap="round" stroke-linejoin="round"/>
</svg>
