<svg width="29" height="40" viewBox="0 0 29 40" fill="none" xmlns="http://www.w3.org/2000/svg">
<path d="M9.16309 37.71H0.354492V36.8506H9.16309V37.71ZM1.10645 30.2119H8.35742V31.0498H6.88574V34.2617H8.3252V35.0781H1.12793V34.2617H2.56738V31.0498H1.10645V30.2119ZM5.88672 34.2617V31.0498H3.57715V34.2617H5.88672ZM18.6699 37.7637H9.86133V36.9043H13.7393V35.2178H10.9355V32.1562H16.5859V30.8027H10.9141V29.9648H17.5957V32.9727H11.9453V34.3799H17.8213V35.2178H14.749V36.9043H18.6699V37.7637ZM27.3711 34.2617H26.3398V29.2881H27.3711V34.2617ZM19.5293 33.1553C19.7656 33.1553 20.1559 33.1517 20.7002 33.1445V30.7275H19.7871V29.9219H25.0186V30.7275H24.0947V33.0049C24.5781 32.9727 25.0329 32.9297 25.459 32.876L25.502 33.6172C24.6462 33.7461 23.7277 33.8374 22.7466 33.8911C21.7655 33.9448 20.7915 33.9717 19.8247 33.9717H19.6475L19.5293 33.1553ZM20.9795 34.7021H27.3711V37.0869H22.0107V38H27.7041V38.8164H21.0117V36.3457H26.3613V35.5078H20.9795V34.7021ZM21.6777 33.123C22.3258 33.1016 22.8057 33.0819 23.1172 33.064V30.7275H21.6777V33.123Z" fill="#F5535D"/>
<path d="M15 12C17.7614 12 20 9.76142 20 7C20 4.23858 17.7614 2 15 2C12.2386 2 10 4.23858 10 7C10 9.76142 12.2386 12 15 12Z" stroke="#F5535D" stroke-width="1.5" stroke-linecap="round" stroke-linejoin="round"/>
<path d="M23.5901 22C23.5901 18.13 19.7402 15 15.0002 15C10.2602 15 6.41016 18.13 6.41016 22" stroke="#F5535D" stroke-width="1.5" stroke-linecap="round" stroke-linejoin="round"/>
</svg>
