<svg width="27" height="40" viewBox="0 0 27 40" fill="none" xmlns="http://www.w3.org/2000/svg">
<path d="M8.37891 36.3457H7.3584V32.7256H5.52148V31.8984H7.3584V29.2988H8.37891V36.3457ZM0.365234 34.3369C0.848633 34.1722 1.27116 33.9323 1.63281 33.6172C1.99805 33.2985 2.27734 32.9333 2.4707 32.5215C2.66406 32.1097 2.76074 31.6836 2.76074 31.2432V30.8672H0.676758V30.0293H5.86523V30.8672H3.80273V31.2432C3.79915 31.6442 3.89046 32.0363 4.07666 32.4194C4.26644 32.8026 4.53678 33.1445 4.8877 33.4453C5.23861 33.7461 5.65039 33.9753 6.12305 34.1328L5.59668 34.9492C5.06673 34.763 4.60482 34.4873 4.21094 34.1221C3.81706 33.7568 3.5127 33.3307 3.29785 32.8438C3.08659 33.3809 2.77327 33.8517 2.35791 34.2563C1.94613 34.661 1.45736 34.9635 0.891602 35.1641L0.365234 34.3369ZM2.12695 35.7119H3.14746V37.8818H8.63672V38.709H2.12695V35.7119ZM13.3955 31.7373C13.3919 32.3174 13.4976 32.8885 13.7124 33.4507C13.9308 34.0129 14.2334 34.5124 14.6201 34.9492C15.0104 35.3825 15.4508 35.7083 15.9414 35.9268L15.3291 36.7324C14.7812 36.471 14.2961 36.0843 13.8735 35.5723C13.451 35.0602 13.1252 34.473 12.896 33.8105C12.6704 34.5267 12.341 35.1587 11.9077 35.7065C11.478 36.2544 10.9785 36.668 10.4092 36.9473L9.78613 36.0879C10.2839 35.8695 10.7279 35.5347 11.1182 35.0835C11.5085 34.6287 11.8128 34.1095 12.0312 33.5259C12.2533 32.9386 12.3643 32.3424 12.3643 31.7373V30.0938H13.3955V31.7373ZM16.8115 29.2881H17.832V38.9346H16.8115V29.2881ZM27.3281 38.9131H26.3076V29.2881H27.3281V38.9131ZM19.4219 36.292C20.582 36.2848 21.4629 36.2741 22.0645 36.2598V35.293C21.6921 35.2428 21.3662 35.139 21.0869 34.9814C20.8076 34.8239 20.5928 34.6216 20.4424 34.3745C20.292 34.1274 20.2168 33.8499 20.2168 33.542C20.2168 33.1839 20.3135 32.8688 20.5068 32.5967C20.7002 32.3245 20.9741 32.1133 21.3286 31.9629C21.6831 31.8125 22.0895 31.7373 22.5479 31.7373C23.0133 31.7373 23.4251 31.8125 23.7832 31.9629C24.1413 32.1133 24.4206 32.3245 24.6211 32.5967C24.8216 32.8688 24.9219 33.1839 24.9219 33.542C24.9219 33.8464 24.8449 34.1221 24.6909 34.3691C24.5405 34.6126 24.3257 34.8132 24.0464 34.9707C23.7707 35.1283 23.4466 35.2339 23.0742 35.2876V36.2222C24.1055 36.172 24.9863 36.0986 25.7168 36.002L25.792 36.7646C24.8932 36.915 23.9587 37.0153 22.9883 37.0654C22.0179 37.1156 20.992 37.1406 19.9106 37.1406H19.5615L19.4219 36.292ZM19.626 30.4375H22.0645V29.3096H23.085V30.4375H25.502V31.2539H19.626V30.4375ZM21.1836 33.542C21.18 33.7425 21.2337 33.918 21.3447 34.0684C21.4593 34.2152 21.6187 34.3298 21.8228 34.4121C22.0304 34.4909 22.2668 34.5303 22.5317 34.5303C22.811 34.5303 23.0563 34.4909 23.2676 34.4121C23.4824 34.3333 23.6489 34.2205 23.7671 34.0737C23.8853 33.9233 23.9443 33.7461 23.9443 33.542C23.9443 33.3379 23.8853 33.1606 23.7671 33.0103C23.6525 32.8563 23.4896 32.7381 23.2783 32.6558C23.0671 32.5734 22.8236 32.5322 22.5479 32.5322C22.2793 32.5322 22.0412 32.5734 21.8335 32.6558C21.6258 32.7381 21.4647 32.8563 21.3501 33.0103C21.2355 33.1606 21.18 33.3379 21.1836 33.542Z" fill="#999999"/>
<path d="M6.00977 11.2197V15.7097C6.00977 20.1997 7.80977 21.9997 12.2998 21.9997H17.6898C22.1798 21.9997 23.9798 20.1997 23.9798 15.7097V11.2197" stroke="#999999" stroke-width="1.5" stroke-linecap="round" stroke-linejoin="round"/>
<path d="M15.0005 12C16.8305 12 18.1805 10.51 18.0005 8.68L17.3405 2H12.6705L12.0005 8.68C11.8205 10.51 13.1705 12 15.0005 12Z" stroke="#999999" stroke-width="1.5" stroke-linecap="round" stroke-linejoin="round"/>
<path d="M21.3098 12C23.3298 12 24.8098 10.36 24.6098 8.35L24.3298 5.6C23.9698 3 22.9698 2 20.3498 2H17.2998L17.9998 9.01C18.1698 10.66 19.6598 12 21.3098 12Z" stroke="#999999" stroke-width="1.5" stroke-linecap="round" stroke-linejoin="round"/>
<path d="M8.64037 12C10.2904 12 11.7804 10.66 11.9404 9.01L12.1604 6.8L12.6404 2H9.59037C6.97037 2 5.97037 3 5.61037 5.6L5.34037 8.35C5.14037 10.36 6.62037 12 8.64037 12Z" stroke="#999999" stroke-width="1.5" stroke-linecap="round" stroke-linejoin="round"/>
<path d="M15 17C13.33 17 12.5 17.83 12.5 19.5V22H17.5V19.5C17.5 17.83 16.67 17 15 17Z" stroke="#999999" stroke-width="1.5" stroke-linecap="round" stroke-linejoin="round"/>
</svg>
