<svg width="24" height="40" viewBox="0 0 24 40" fill="none" xmlns="http://www.w3.org/2000/svg">
<path d="M15.0566 38.7949H8.40723V36.0127H15.0566V38.7949ZM7.35449 34.5518H11.2324V33.8965C10.373 33.8607 9.71419 33.7282 9.25586 33.499C8.80111 33.2699 8.57552 32.9512 8.5791 32.543C8.57552 32.099 8.84587 31.7624 9.39014 31.5332C9.93441 31.3005 10.7168 31.1823 11.7373 31.1787C12.7614 31.1823 13.5438 31.3005 14.0845 31.5332C14.6287 31.7624 14.8991 32.099 14.8955 32.543C14.8991 32.9548 14.6735 33.2752 14.2188 33.5044C13.7676 33.73 13.1123 33.8607 12.2529 33.8965V34.5518H16.1309V35.3574H7.35449V34.5518ZM7.80566 30.0508H11.2324V29.1592H12.2529V30.0508H15.6367V30.835H7.80566V30.0508ZM14.0684 38.0107V36.7969H9.41699V38.0107H14.0684ZM9.66406 32.543C9.66048 32.7614 9.83594 32.9279 10.1904 33.0425C10.5485 33.1535 11.0641 33.209 11.7373 33.209C12.4141 33.209 12.9279 33.1535 13.2788 33.0425C13.6333 32.9279 13.8105 32.7614 13.8105 32.543C13.8105 32.1097 13.1195 31.8877 11.7373 31.877C11.057 31.8841 10.5396 31.9432 10.1851 32.0542C9.83415 32.1616 9.66048 32.3245 9.66406 32.543Z" fill="#FC6554"/>
<path d="M3 9L12 2L21 9V20C21 20.5304 20.7893 21.0391 20.4142 21.4142C20.0391 21.7893 19.5304 22 19 22H5C4.46957 22 3.96086 21.7893 3.58579 21.4142C3.21071 21.0391 3 20.5304 3 20V9Z" stroke="#FC6554" stroke-width="1.5" stroke-linecap="round" stroke-linejoin="round"/>
<path d="M9 22V12H15V22" stroke="#FC6554" stroke-width="1.5" stroke-linecap="round" stroke-linejoin="round"/>
</svg>
