<svg width="24" height="38" viewBox="0 0 24 38" fill="none" xmlns="http://www.w3.org/2000/svg">
<path d="M15.0566 36.7949H8.40723V34.0127H15.0566V36.7949ZM7.35449 32.5518H11.2324V31.8965C10.373 31.8607 9.71419 31.7282 9.25586 31.499C8.80111 31.2699 8.57552 30.9512 8.5791 30.543C8.57552 30.099 8.84587 29.7624 9.39014 29.5332C9.93441 29.3005 10.7168 29.1823 11.7373 29.1787C12.7614 29.1823 13.5438 29.3005 14.0845 29.5332C14.6287 29.7624 14.8991 30.099 14.8955 30.543C14.8991 30.9548 14.6735 31.2752 14.2188 31.5044C13.7676 31.73 13.1123 31.8607 12.2529 31.8965V32.5518H16.1309V33.3574H7.35449V32.5518ZM7.80566 28.0508H11.2324V27.1592H12.2529V28.0508H15.6367V28.835H7.80566V28.0508ZM14.0684 36.0107V34.7969H9.41699V36.0107H14.0684ZM9.66406 30.543C9.66048 30.7614 9.83594 30.9279 10.1904 31.0425C10.5485 31.1535 11.0641 31.209 11.7373 31.209C12.4141 31.209 12.9279 31.1535 13.2788 31.0425C13.6333 30.9279 13.8105 30.7614 13.8105 30.543C13.8105 30.1097 13.1195 29.8877 11.7373 29.877C11.057 29.8841 10.5396 29.9432 10.1851 30.0542C9.83415 30.1616 9.66048 30.3245 9.66406 30.543Z" fill="#999999"/>
<path d="M3 9L12 2L21 9V20C21 20.5304 20.7893 21.0391 20.4142 21.4142C20.0391 21.7893 19.5304 22 19 22H5C4.46957 22 3.96086 21.7893 3.58579 21.4142C3.21071 21.0391 3 20.5304 3 20V9Z" stroke="#999999" stroke-width="1.5" stroke-linecap="round" stroke-linejoin="round"/>
<path d="M9 22V12H15V22" stroke="#999999" stroke-width="1.5" stroke-linecap="round" stroke-linejoin="round"/>
</svg>
