<svg width="24" height="38" viewBox="0 0 24 38" fill="none" xmlns="http://www.w3.org/2000/svg">
<path d="M5.2334 30.2314C5.2334 30.7399 5.31038 31.2376 5.46436 31.7246C5.62191 32.2116 5.85465 32.652 6.1626 33.0459C6.47054 33.4398 6.84115 33.7513 7.27441 33.9805L6.69434 34.7432C6.23958 34.5033 5.84749 34.1667 5.51807 33.7334C5.19222 33.3001 4.93978 32.8042 4.76074 32.2456C4.58529 32.8472 4.33464 33.3825 4.00879 33.8516C3.68652 34.3206 3.2998 34.6859 2.84863 34.9473L2.24707 34.1953C2.67676 33.9447 3.04378 33.6099 3.34814 33.1909C3.65251 32.7684 3.88167 32.3011 4.03564 31.7891C4.1932 31.277 4.27376 30.7578 4.27734 30.2314V29.877H2.49414V29.0283H4.27734V27.6318H5.2334V29.0283H6.98438V29.877H5.2334V30.2314ZM7.5752 27.4707H8.54199V31.1123H9.69141V27.2881H10.6689V36.9131H9.69141V31.9717H8.54199V36.4404H7.5752V27.4707ZM17.0391 28.8027H13.4404V29.8662H16.7705V30.6719H13.4404V31.7676H14.0259C14.8638 31.7676 15.562 31.7515 16.1206 31.7192C16.6792 31.6834 17.236 31.6172 17.791 31.5205L17.8984 32.3477C17.2718 32.4515 16.6416 32.5213 16.0078 32.5571C15.3776 32.5894 14.5594 32.6055 13.5532 32.6055H13.2041H12.4092V27.9863H17.0391V28.8027ZM13.3438 35.1191C13.3438 34.7467 13.4744 34.4281 13.7358 34.1631C13.9972 33.8981 14.3732 33.6958 14.8638 33.5562C15.3543 33.4165 15.9398 33.3467 16.6201 33.3467C17.2897 33.3467 17.8698 33.4165 18.3604 33.5562C18.8545 33.6958 19.234 33.8999 19.499 34.1685C19.764 34.4334 19.8965 34.7503 19.8965 35.1191C19.8965 35.4915 19.764 35.8102 19.499 36.0752C19.234 36.3438 18.8545 36.5461 18.3604 36.6821C17.8698 36.8218 17.2897 36.8916 16.6201 36.8916C15.9398 36.8916 15.3543 36.8218 14.8638 36.6821C14.3732 36.5461 13.9972 36.3455 13.7358 36.0806C13.4744 35.8156 13.3438 35.4951 13.3438 35.1191ZM14.3643 35.1191C14.3607 35.4307 14.5558 35.6724 14.9497 35.8442C15.3436 36.0161 15.9004 36.1038 16.6201 36.1074C17.3291 36.1038 17.8823 36.0161 18.2798 35.8442C18.6808 35.6724 18.8796 35.4307 18.876 35.1191C18.876 34.9186 18.7865 34.7467 18.6074 34.6035C18.432 34.4567 18.1759 34.3457 17.8394 34.2705C17.5063 34.1917 17.1107 34.1523 16.6523 34.1523C15.9219 34.1523 15.3561 34.2365 14.9551 34.4048C14.5576 34.5731 14.3607 34.8112 14.3643 35.1191ZM18.8223 27.2988H19.8428V33.2178H18.8223V27.2988Z" fill="#191919"/>
<path d="M15.59 12.4V16.47C15.59 16.83 15.55 17.17 15.46 17.48C15.09 18.95 13.87 19.87 12.19 19.87H9.47L6.45 21.88C6 22.19 5.4 21.86 5.4 21.32V19.87C4.38 19.87 3.53 19.53 2.94 18.94C2.34 18.34 2 17.49 2 16.47V12.4C2 10.5 3.18 9.19 5 9.02C5.13 9.01 5.26 9 5.4 9H12.19C14.23 9 15.59 10.36 15.59 12.4Z" fill="#191919"/>
<path d="M17.75 15.6C19.02 15.6 20.09 15.18 20.83 14.43C21.58 13.69 22 12.62 22 11.35V6.25C22 3.9 20.1 2 17.75 2H9.25C6.9 2 5 3.9 5 6.25V7C5 7.28 5.22 7.5 5.5 7.5H12.19C14.9 7.5 17.09 9.69 17.09 12.4V15.1C17.09 15.38 17.31 15.6 17.59 15.6H17.75Z" fill="#191919"/>
</svg>
