<svg width="24" height="38" viewBox="0 0 24 38" fill="none" xmlns="http://www.w3.org/2000/svg">
<path d="M5.23438 28.2227L7.69434 34.249H7.79102L10.251 28.2227H11.6904V36H10.5625V30.3818H10.4873L8.20996 35.9893H7.27539L4.9873 30.3711H4.92285V36H3.79492V28.2227H5.23438ZM14.0215 28.2227L16.041 31.7461H16.127L18.1572 28.2227H19.5L16.6748 32.9492V36H15.4932V32.9492L12.6787 28.2227H14.0215Z" fill="#999999"/>
<path d="M12 12C14.7614 12 17 9.76142 17 7C17 4.23858 14.7614 2 12 2C9.23858 2 7 4.23858 7 7C7 9.76142 9.23858 12 12 12Z" stroke="#999999" stroke-width="1.5" stroke-linecap="round" stroke-linejoin="round"/>
<path d="M20.5899 22C20.5899 18.13 16.7399 15 11.9999 15C7.25991 15 3.40991 18.13 3.40991 22" stroke="#999999" stroke-width="1.5" stroke-linecap="round" stroke-linejoin="round"/>
</svg>
