<svg width="24" height="38" viewBox="0 0 24 38" fill="none" xmlns="http://www.w3.org/2000/svg">
<path d="M10.3789 32.9922H9.3584V31.8213H6.93066V30.9834H9.3584V29.8125H7.03271C6.72477 30.5788 6.2181 31.234 5.5127 31.7783C4.80729 32.3226 3.93001 32.7451 2.88086 33.0459L2.47266 32.251C3.60775 31.9287 4.49935 31.4722 5.14746 30.8813C5.79915 30.2905 6.17155 29.6048 6.26465 28.8242H2.9668V27.9863H7.37109C7.37109 28.3265 7.33708 28.6667 7.26904 29.0068H9.3584V27.2988H10.3789V32.9922ZM3.96582 34.9795C3.96582 34.5964 4.09831 34.2633 4.36328 33.9805C4.62826 33.6976 5.00423 33.481 5.49121 33.3306C5.98177 33.1766 6.55469 33.0996 7.20996 33.0996C7.85807 33.0996 8.42562 33.1766 8.9126 33.3306C9.39958 33.481 9.77555 33.6976 10.0405 33.9805C10.3091 34.2633 10.4434 34.5964 10.4434 34.9795C10.4434 35.3662 10.3091 35.7028 10.0405 35.9893C9.77555 36.2721 9.39958 36.4888 8.9126 36.6392C8.42562 36.7931 7.85807 36.8701 7.20996 36.8701C6.55469 36.8701 5.98177 36.7931 5.49121 36.6392C5.00423 36.4888 4.62826 36.2721 4.36328 35.9893C4.09831 35.7028 3.96582 35.3662 3.96582 34.9795ZM4.97559 34.9795C4.97559 35.2015 5.0651 35.3931 5.24414 35.5542C5.42676 35.7153 5.68457 35.8389 6.01758 35.9248C6.35417 36.0107 6.75163 36.0537 7.20996 36.0537C7.65755 36.0537 8.04785 36.0107 8.38086 35.9248C8.71387 35.8389 8.96989 35.7153 9.14893 35.5542C9.33154 35.3931 9.42285 35.2015 9.42285 34.9795C9.42285 34.7539 9.33333 34.5605 9.1543 34.3994C8.97526 34.2383 8.72103 34.1165 8.3916 34.0342C8.06576 33.9482 7.68083 33.9053 7.23682 33.9053C6.53141 33.9053 5.97819 33.9984 5.57715 34.1846C5.17611 34.3708 4.97559 34.6357 4.97559 34.9795ZM20.1436 36.9131H19.166V31.8965H17.9736V36.4404H17.0068V27.4707H17.9736V31.0586H19.166V27.2881H20.1436V36.9131ZM12.1836 28.373H15.9219V34.3779H12.1836V28.373ZM14.9658 33.5615V29.1787H13.1504V33.5615H14.9658Z" fill="#999999"/>
<rect width="24" height="24" fill="#999999"/>
</svg>
