<svg width="57" height="10" viewBox="0 0 57 10" fill="none" xmlns="http://www.w3.org/2000/svg">
<path d="M5.39579 7.11258C5.38933 6.85776 5.34213 6.61476 5.25938 6.38987L5.16434 6.21094C5.2542 6.44488 5.30592 6.69971 5.31239 6.96637C5.34342 8.18064 4.40597 9.16862 3.27844 9.16862H0.16286C0.133766 9.16862 0.106613 9.16026 0.0839844 9.14634C0.087217 9.23476 0.153809 9.31413 0.246261 9.31413H3.36119C4.48872 9.31413 5.42618 8.32615 5.39579 7.11258Z" fill="#F7B3BB"/>
<path d="M9.63773 9.14262H7.52943C7.05294 9.14958 6.63012 8.89058 6.38315 8.49371C6.38121 8.49163 6.37991 8.48954 6.37862 8.48675L6.33789 8.41504L6.41095 8.55986L6.46332 8.65803C6.46332 8.65803 6.4659 8.6636 6.46719 8.66499C6.70059 9.06255 7.09949 9.32156 7.54882 9.3139H9.53946C9.62932 9.31181 9.69203 9.22478 9.68816 9.13218C9.67264 9.13845 9.65583 9.14193 9.63773 9.14262Z" fill="#F7B3BB"/>
<path d="M9.68691 9.13291C9.67139 9.13918 9.65458 9.14266 9.63648 9.14336H7.52818C7.05169 9.15032 6.62887 8.89131 6.3819 8.49445C6.37996 8.49236 6.37867 8.49027 6.37737 8.48749L6.33664 8.41577L6.32177 8.38932L5.25825 6.39038L5.16321 6.21144C5.25308 6.44538 5.3048 6.70021 5.31126 6.96687C5.3423 8.18114 4.40484 9.16912 3.27731 9.16912H0.161732C0.132639 9.16912 0.105485 9.16076 0.0828568 9.14684C0.00850701 9.10158 -0.0257584 8.99575 0.022084 8.90733L1.52912 6.09725L1.52977 6.09377L1.67653 5.82154C1.85561 5.53816 2.09612 5.30422 2.37736 5.13991C2.65859 4.97629 2.98056 4.88299 3.32257 4.88299C3.94581 4.88299 4.50247 5.19213 4.8671 5.67602L3.72082 3.53783L3.66716 3.43827C3.66716 3.43827 3.66393 3.43339 3.66328 3.43061C3.45769 3.00729 3.44864 2.48371 3.68203 2.03602L4.72681 0.0872056C4.78952 -0.0290685 4.94533 -0.0290685 5.00804 0.0872056L6.04636 2.02279L7.34198 4.43808L9.7716 8.87739C9.82785 8.97625 9.78065 9.0988 9.68691 9.13291Z" fill="#EF565E"/>
<g clip-path="url(#clip0_1027_5387)">
<path d="M15.5253 9.3257C15.3707 9.2773 15.245 9.21228 15.1475 9.13065C15.05 9.04974 14.9792 8.95583 14.9344 8.85036C14.8896 8.74489 14.8672 8.63942 14.8672 8.53395C14.8672 8.42848 14.8831 8.32734 14.9156 8.22982L17.5588 0.766002C17.6152 0.603462 17.7351 0.447424 17.9179 0.297166C18.1006 0.146907 18.3744 0.0717773 18.74 0.0717773C19.1055 0.0717773 19.3815 0.146907 19.5678 0.297166C19.7542 0.447424 19.8763 0.603462 19.9334 0.766002L22.5759 8.25438C22.6734 8.53828 22.6691 8.76584 22.5636 8.93632C22.4581 9.10681 22.2754 9.2289 22.016 9.30186C21.7076 9.39071 21.4497 9.38277 21.2431 9.2773C21.0357 9.17183 20.892 8.99701 20.8111 8.75356L20.2512 7.08554H17.3031L16.7187 8.81496C16.6537 9.01001 16.5114 9.16027 16.2925 9.26574C16.0736 9.37121 15.8179 9.39143 15.5253 9.32642V9.3257ZM18.7768 2.70203L17.7907 5.61185H19.7513L18.7775 2.70203H18.7768Z" fill="#EF565E" stroke="#EF565E" stroke-width="0.14448" stroke-miterlimit="10"/>
<path d="M23.1117 1.63076C22.7707 1.63076 22.5309 1.55563 22.3929 1.40537C22.2549 1.25511 22.1855 1.07885 22.1855 0.875852C22.1855 0.786275 22.1993 0.699587 22.2282 0.614344C22.2563 0.529101 22.3055 0.451805 22.3741 0.383177C22.4427 0.314549 22.5366 0.25748 22.6544 0.212691C22.7721 0.167902 22.9238 0.145508 23.1109 0.145508H28.2262C28.5672 0.145508 28.8063 0.220637 28.945 0.370896C29.083 0.521155 29.1524 0.701754 29.1524 0.912695C29.1524 1.00227 29.1379 1.08896 29.1097 1.1742C29.0816 1.25945 29.0324 1.33458 28.9638 1.39959C28.8945 1.46461 28.8013 1.51951 28.6835 1.5643C28.5658 1.60909 28.4133 1.63148 28.227 1.63148H26.741V8.43719C26.741 8.59973 26.7106 8.73916 26.65 8.85691C26.5893 8.97466 26.5098 9.07218 26.4123 9.14948C26.3148 9.22677 26.2035 9.28312 26.0771 9.31996C25.9514 9.35681 25.8235 9.37487 25.6935 9.37487C25.5555 9.37487 25.4233 9.35681 25.2976 9.31996C25.1719 9.28312 25.0578 9.22677 24.9567 9.14948C24.8548 9.07218 24.7739 8.97466 24.7132 8.85691C24.6525 8.73916 24.6222 8.59901 24.6222 8.43719V1.63076H23.1117Z" fill="#EF565E" stroke="#EF565E" stroke-width="0.14448" stroke-miterlimit="10"/>
<path d="M30.9779 1.63076C30.6369 1.63076 30.3971 1.55563 30.2591 1.40537C30.1211 1.25511 30.0518 1.07885 30.0518 0.875852C30.0518 0.786275 30.0655 0.699587 30.0944 0.614344C30.1226 0.529101 30.1717 0.451805 30.2403 0.383177C30.3089 0.314549 30.4028 0.25748 30.5206 0.212691C30.6383 0.167902 30.79 0.145508 30.9772 0.145508H36.0924C36.4334 0.145508 36.6725 0.220637 36.8112 0.370896C36.9492 0.521155 37.0186 0.701754 37.0186 0.912695C37.0186 1.00227 37.0041 1.08896 36.9759 1.1742C36.9478 1.25945 36.8986 1.33457 36.83 1.39959C36.7607 1.46461 36.6675 1.51951 36.5497 1.5643C36.432 1.60909 36.2796 1.63148 36.0932 1.63148H34.6072V8.43719C34.6072 8.59973 34.5769 8.73916 34.5162 8.85691C34.4555 8.97466 34.376 9.07218 34.2785 9.14948C34.181 9.22677 34.0697 9.28312 33.9433 9.31996C33.8176 9.35681 33.6898 9.37487 33.5597 9.37487C33.4217 9.37487 33.2895 9.35681 33.1638 9.31996C33.0382 9.28312 32.924 9.22677 32.8229 9.14948C32.721 9.07218 32.6401 8.97466 32.5794 8.85691C32.5187 8.73916 32.4884 8.59901 32.4884 8.43719V1.63076H30.9779Z" fill="#EF565E" stroke="#EF565E" stroke-width="0.14448" stroke-miterlimit="10"/>
<path d="M38.2725 1.04585C38.2725 0.737386 38.3837 0.509831 38.6077 0.363906C38.8309 0.217982 39.0801 0.14502 39.3568 0.14502C39.4868 0.14502 39.6147 0.163079 39.7404 0.199922C39.8661 0.236764 39.978 0.290944 40.0756 0.364629C40.1731 0.437591 40.2504 0.53078 40.3067 0.644919C40.3631 0.758336 40.392 0.892702 40.392 1.04657V8.43743C40.392 8.59997 40.3631 8.73939 40.3067 8.85714C40.2497 8.97489 40.1731 9.07242 40.0756 9.14971C39.978 9.22701 39.8668 9.28336 39.7404 9.3202C39.6147 9.35704 39.4868 9.3751 39.3568 9.3751C39.2188 9.3751 39.0844 9.35704 38.9551 9.3202C38.8251 9.28336 38.7095 9.22701 38.6084 9.14971C38.5065 9.07242 38.4256 8.97489 38.3649 8.85714C38.3042 8.73939 38.2739 8.59924 38.2739 8.43743V1.04585H38.2725Z" fill="#EF565E" stroke="#EF565E" stroke-width="0.14448" stroke-miterlimit="10"/>
<path d="M44.349 7.85301H46.8217C47.1302 7.85301 47.3679 7.9303 47.534 8.08417C47.7002 8.23877 47.784 8.42081 47.784 8.63175C47.784 8.71266 47.7659 8.79646 47.7291 8.8817C47.6922 8.96694 47.6337 9.04641 47.5528 9.11937C47.4719 9.19233 47.3722 9.25301 47.2544 9.30214C47.1367 9.35054 46.9929 9.3751 46.8224 9.3751H43.1447C42.8608 9.3751 42.639 9.30214 42.4808 9.15621C42.3226 9.01029 42.2432 8.80296 42.2432 8.53495V0.912206C42.2432 0.685373 42.3306 0.500439 42.5047 0.358127C42.6795 0.215815 42.8962 0.14502 43.1563 0.14502H46.8463C47.1547 0.14502 47.3881 0.220149 47.5463 0.370408C47.7045 0.520667 47.784 0.701266 47.784 0.912206C47.784 1.08269 47.711 1.2474 47.5651 1.4056C47.4191 1.56381 47.1793 1.64327 46.8463 1.64327H44.3497V4.00479H46.6881C46.9965 4.00479 47.2241 4.07775 47.37 4.22368C47.5159 4.3696 47.5889 4.54876 47.5889 4.7597C47.5889 4.93018 47.5217 5.09489 47.3881 5.2531C47.2544 5.4113 47.0204 5.49077 46.6881 5.49077H44.3497V7.85301H44.349Z" fill="#EF565E" stroke="#EF565E" stroke-width="0.14448" stroke-miterlimit="10"/>
<path d="M52.7751 7.92577C53.0185 7.92577 53.2475 7.90554 53.4628 7.86509C53.6781 7.82463 53.8623 7.75962 54.0169 7.67004C54.1707 7.58118 54.2928 7.46704 54.3824 7.32907C54.472 7.19109 54.516 7.02855 54.516 6.84217C54.516 6.63123 54.4655 6.44846 54.3636 6.29459C54.2618 6.14072 54.126 6.00419 53.9555 5.88644C53.785 5.76869 53.5899 5.66538 53.371 5.57581C53.1522 5.48695 52.9246 5.40099 52.6891 5.32008C52.3236 5.19005 51.9479 5.05062 51.5629 4.90036C51.1771 4.7501 50.8282 4.57167 50.5154 4.36434C50.2026 4.15702 49.9469 3.91212 49.7482 3.6275C49.5496 3.3436 49.4499 3.00262 49.4499 2.60458C49.4499 2.11769 49.5676 1.71387 49.8031 1.39312C50.0386 1.07238 50.3391 0.816647 50.704 0.625934C51.0695 0.435221 51.4791 0.29941 51.9342 0.217779C52.3886 0.136871 52.835 0.0956942 53.2735 0.0956942C53.4924 0.0956942 53.7387 0.086303 54.0039 0.126035C54.269 0.165767 54.2784 0.180937 54.5341 0.229338C54.7898 0.277738 55.029 0.339142 55.2529 0.412105C55.4761 0.485067 55.6488 0.574644 55.7701 0.680114C55.8677 0.761023 55.9348 0.856379 55.971 0.966184C56.0078 1.07599 56.0259 1.17568 56.0259 1.26453C56.0179 1.45958 55.9688 1.61129 55.8799 1.72109C55.7904 1.83089 55.6827 1.90602 55.557 1.94648C55.4313 1.98693 55.2933 2.00355 55.1431 1.99488C54.9928 1.98693 54.857 1.95804 54.7349 1.90964C54.4344 1.81211 54.1505 1.7312 53.8825 1.66619C53.6145 1.60117 53.582 1.56866 53.2735 1.56866C52.778 1.56866 52.3705 1.64018 52.0498 1.78177C51.729 1.92408 51.5687 2.15742 51.5687 2.48178C51.5687 2.66888 51.6214 2.83069 51.7269 2.96867C51.8323 3.10665 51.9725 3.23018 52.1473 3.33998C52.3221 3.44979 52.5251 3.54948 52.7563 3.63833C52.9875 3.72791 53.2287 3.81315 53.4809 3.89406L54.1505 4.12523C54.459 4.23937 54.7609 4.36868 55.0578 4.5146C55.354 4.66053 55.6177 4.83535 55.8496 5.03834C56.0808 5.24134 56.2679 5.47684 56.4095 5.74485C56.551 6.01286 56.6226 6.32566 56.6226 6.68252C56.6226 7.15352 56.5294 7.56312 56.3423 7.91204C56.1552 8.26096 55.8937 8.5492 55.557 8.77675C55.2204 9.00359 54.8202 9.17263 54.3578 9.28243C53.8955 9.39224 53.3877 9.44714 52.8358 9.44714C52.0238 9.44714 51.3382 9.34961 50.7776 9.15457C50.2178 8.95952 49.8075 8.73269 49.5481 8.47262C49.4672 8.40761 49.4058 8.33031 49.3653 8.24146C49.3249 8.1526 49.3003 8.06302 49.2924 7.97345C49.2758 7.82752 49.2924 7.69749 49.3408 7.58407C49.3892 7.47066 49.4564 7.37674 49.5416 7.30378C49.6269 7.23082 49.7222 7.17592 49.8277 7.1398C49.9332 7.10296 50.043 7.0849 50.1564 7.0849C50.2785 7.0849 50.402 7.10512 50.5277 7.14558C50.6534 7.18603 50.761 7.2431 50.8506 7.31606C50.9806 7.40564 51.1063 7.48655 51.2284 7.55951C51.3505 7.63247 51.4841 7.69532 51.6301 7.74806C51.776 7.80079 51.9421 7.84341 52.1292 7.87592C52.3156 7.90843 52.5309 7.92504 52.7743 7.92504L52.7751 7.92577Z" fill="#EF565E" stroke="#EF565E" stroke-width="0.14448" stroke-miterlimit="10"/>
</g>
<defs>
<clipPath id="clip0_1027_5387">
<rect width="41.8984" height="9.52048" fill="white" transform="translate(14.7959)"/>
</clipPath>
</defs>
</svg>
