<svg width="37" height="37" viewBox="0 0 37 37" fill="none" xmlns="http://www.w3.org/2000/svg">
<rect width="37" height="37" rx="18.5" fill="#FC5E54"/>
<path d="M26.2228 7.91699H23.5278C22.3637 7.91699 21.667 8.61366 21.667 9.77783V12.4728C21.667 13.637 22.3637 14.3337 23.5278 14.3337H26.2228C27.387 14.3337 28.0837 13.637 28.0837 12.4728V9.77783C28.0837 8.61366 27.387 7.91699 26.2228 7.91699ZM26.8278 10.1628L24.6553 12.702C24.5728 12.8028 24.4445 12.867 24.3162 12.867C24.307 12.867 24.307 12.867 24.2978 12.867C24.1695 12.867 24.0503 12.8212 23.9587 12.7295L22.9503 11.7395C22.767 11.5562 22.767 11.2537 22.9503 11.0703C23.1337 10.887 23.4362 10.8778 23.6195 11.0703L24.2612 11.7028L26.0945 9.55783C26.2687 9.35616 26.562 9.33783 26.7637 9.50283C26.9745 9.66783 26.9928 9.97033 26.8278 10.1628Z" fill="white"/>
<path d="M15.249 16.5147C16.454 16.5147 17.4307 15.5379 17.4307 14.333C17.4307 13.1281 16.454 12.1514 15.249 12.1514C14.0441 12.1514 13.0674 13.1281 13.0674 14.333C13.0674 15.5379 14.0441 16.5147 15.249 16.5147Z" fill="white"/>
<path d="M26.2222 14.333H25.7913V18.5588L25.6722 18.458C24.9572 17.8438 23.8022 17.8438 23.0872 18.458L19.2738 21.7305C18.5588 22.3447 17.4038 22.3447 16.6888 21.7305L16.3772 21.4738C15.7263 20.9055 14.6905 20.8505 13.9572 21.3455L10.5288 23.6463C10.3272 23.133 10.208 22.5372 10.208 21.8405V14.1588C10.208 11.5738 11.5738 10.208 14.1588 10.208H21.6663V9.77717C21.6663 9.41051 21.7305 9.09884 21.8772 8.83301H14.1588C10.8222 8.83301 8.83301 10.8222 8.83301 14.1588V21.8405C8.83301 22.8397 9.00717 23.7105 9.34634 24.4438C10.1347 26.1855 11.8213 27.1663 14.1588 27.1663H21.8405C25.1772 27.1663 27.1663 25.1772 27.1663 21.8405V14.1222C26.9005 14.2688 26.5888 14.333 26.2222 14.333Z" fill="white"/>
</svg>
