<svg width="37" height="37" viewBox="0 0 37 37" fill="none" xmlns="http://www.w3.org/2000/svg">
<rect width="37" height="37" rx="18.5" fill="#FCC354"/>
<path d="M14.2881 23.8803L17.3088 26.2189C17.6985 26.6087 18.5755 26.8035 19.1601 26.8035H22.8629C24.0322 26.8035 25.2989 25.9266 25.5913 24.7573L27.9298 17.6441C28.4171 16.2799 27.5401 15.1106 26.0785 15.1106H22.1808C21.5962 15.1106 21.109 14.6234 21.2064 13.9413L21.6936 10.8232C21.8885 9.94622 21.3038 8.97181 20.4269 8.67949C19.6473 8.38716 18.6729 8.77693 18.2832 9.36157L14.2881 15.3055" stroke="white" stroke-width="1.10546" stroke-miterlimit="10"/>
<path d="M9.31934 23.8801V14.3309C9.31934 12.9667 9.90398 12.4795 11.2682 12.4795H12.2426C13.6067 12.4795 14.1914 12.9667 14.1914 14.3309V23.8801C14.1914 25.2443 13.6067 25.7315 12.2426 25.7315H11.2682C9.90398 25.7315 9.31934 25.2443 9.31934 23.8801Z" stroke="white" stroke-width="1.10546" stroke-linecap="round" stroke-linejoin="round"/>
</svg>
