<svg width="37" height="37" viewBox="0 0 37 37" fill="none" xmlns="http://www.w3.org/2000/svg">
<rect width="37" height="37" rx="18.5" fill="#FC5E54"/>
<path d="M18.6934 28.2724C13.4093 28.2724 9.11426 23.9774 9.11426 18.6934C9.11426 13.4093 13.4093 9.11426 18.6934 9.11426C23.9774 9.11426 28.2724 13.4093 28.2724 18.6934C28.2724 23.9774 23.9774 28.2724 18.6934 28.2724ZM18.6934 10.4509C14.1489 10.4509 10.4509 14.1489 10.4509 18.6934C10.4509 23.2378 14.1489 26.9358 18.6934 26.9358C23.2378 26.9358 26.9358 23.2378 26.9358 18.6934C26.9358 14.1489 23.2378 10.4509 18.6934 10.4509Z" fill="white"/>
<path d="M17.4281 21.8829C17.2499 21.8829 17.0805 21.8116 16.9558 21.6869L14.434 19.1651C14.1756 18.9067 14.1756 18.479 14.434 18.2206C14.6925 17.9622 15.1202 17.9622 15.3786 18.2206L17.4281 20.27L22.0082 15.6899C22.2666 15.4315 22.6943 15.4315 22.9528 15.6899C23.2112 15.9483 23.2112 16.376 22.9528 16.6344L17.9003 21.6869C17.7756 21.8116 17.6063 21.8829 17.4281 21.8829Z" fill="white"/>
</svg>
