<svg width="37" height="37" viewBox="0 0 37 37" fill="none" xmlns="http://www.w3.org/2000/svg">
<rect width="37" height="37" rx="18.5" fill="#548DFC"/>
<path d="M18.5032 27.9651C17.8992 27.9651 17.3303 27.6587 16.9276 27.1248L15.6147 25.3742C15.5884 25.3392 15.4834 25.2954 15.4396 25.2867H15.002C11.352 25.2867 9.09375 24.2976 9.09375 19.3785V15.002C9.09375 11.1332 11.1332 9.09375 15.002 9.09375H22.0043C25.8731 9.09375 27.9126 11.1332 27.9126 15.002V19.3785C27.9126 23.2473 25.8731 25.2867 22.0043 25.2867H21.5667C21.4967 25.2867 21.4354 25.3217 21.3916 25.3742L20.0787 27.1248C19.6761 27.6587 19.1071 27.9651 18.5032 27.9651ZM15.002 10.4067C11.8684 10.4067 10.4067 11.8684 10.4067 15.002V19.3785C10.4067 23.3348 11.7634 23.9737 15.002 23.9737H15.4396C15.886 23.9737 16.3937 24.2276 16.665 24.5865L17.978 26.337C18.2843 26.7397 18.722 26.7397 19.0283 26.337L20.3413 24.5865C20.6301 24.2013 21.0853 23.9737 21.5667 23.9737H22.0043C25.1379 23.9737 26.5996 22.512 26.5996 19.3785V15.002C26.5996 11.8684 25.1379 10.4067 22.0043 10.4067H15.002Z" fill="white"/>
<path d="M22.8801 15.6586H14.1272C13.7683 15.6586 13.4707 15.361 13.4707 15.0022C13.4707 14.6433 13.7683 14.3457 14.1272 14.3457H22.8801C23.239 14.3457 23.5366 14.6433 23.5366 15.0022C23.5366 15.361 23.239 15.6586 22.8801 15.6586Z" fill="white"/>
<path d="M19.3789 20.0356H14.1272C13.7683 20.0356 13.4707 19.738 13.4707 19.3791C13.4707 19.0203 13.7683 18.7227 14.1272 18.7227H19.3789C19.7378 18.7227 20.0354 19.0203 20.0354 19.3791C20.0354 19.738 19.7378 20.0356 19.3789 20.0356Z" fill="white"/>
</svg>
