<svg width="37" height="37" viewBox="0 0 37 37" fill="none" xmlns="http://www.w3.org/2000/svg">
<rect width="37" height="37" rx="18.5" fill="#FC6554"/>
<path d="M18.5032 28.6711C17.8992 28.6711 17.3303 28.3648 16.9276 27.8309L15.6147 26.0803C15.5884 26.0453 15.4834 26.0015 15.4396 25.9927H15.002C11.352 25.9927 9.09375 25.0037 9.09375 20.0845V15.708C9.09375 11.8392 11.1332 9.7998 15.002 9.7998H22.0043C25.8731 9.7998 27.9126 11.8392 27.9126 15.708V20.0845C27.9126 23.9533 25.8731 25.9927 22.0043 25.9927H21.5667C21.4967 25.9927 21.4354 26.0278 21.3916 26.0803L20.0787 27.8309C19.6761 28.3648 19.1071 28.6711 18.5032 28.6711ZM15.002 11.1127C11.8684 11.1127 10.4067 12.5745 10.4067 15.708V20.0845C10.4067 24.0408 11.7634 24.6798 15.002 24.6798H15.4396C15.886 24.6798 16.3937 24.9336 16.665 25.2925L17.978 27.0431C18.2843 27.4457 18.722 27.4457 19.0283 27.0431L20.3413 25.2925C20.6301 24.9074 21.0853 24.6798 21.5667 24.6798H22.0043C25.1379 24.6798 26.5996 23.2181 26.5996 20.0845V15.708C26.5996 12.5745 25.1379 11.1127 22.0043 11.1127H15.002Z" fill="white"/>
<path d="M22.8801 16.3647H14.1272C13.7683 16.3647 13.4707 16.0671 13.4707 15.7082C13.4707 15.3494 13.7683 15.0518 14.1272 15.0518H22.8801C23.239 15.0518 23.5366 15.3494 23.5366 15.7082C23.5366 16.0671 23.239 16.3647 22.8801 16.3647Z" fill="white"/>
<path d="M19.3789 20.7417H14.1272C13.7683 20.7417 13.4707 20.4441 13.4707 20.0852C13.4707 19.7263 13.7683 19.4287 14.1272 19.4287H19.3789C19.7378 19.4287 20.0354 19.7263 20.0354 20.0852C20.0354 20.4441 19.7378 20.7417 19.3789 20.7417Z" fill="white"/>
</svg>
