<svg width="37" height="37" viewBox="0 0 37 37" fill="none" xmlns="http://www.w3.org/2000/svg">
<rect width="37" height="37" rx="18.5" fill="#FCC354"/>
<path d="M23.6465 27.6017H13.8548C10.7509 27.6017 8.22461 25.0755 8.22461 21.9715V12.5911C8.22461 11.3182 8.81211 10.8776 9.16461 10.7307C9.51711 10.5838 10.2417 10.4761 11.1425 11.3769L13.6786 13.913C13.7765 14.0109 13.9332 14.0109 14.0213 13.913L17.5365 10.3978C18.1827 9.75152 19.3186 9.75152 19.955 10.3978L23.4702 13.913C23.5682 14.0109 23.7248 14.0109 23.8129 13.913L26.349 11.3769C27.2498 10.4761 27.9744 10.5936 28.3269 10.7307C28.6794 10.8776 29.2669 11.3084 29.2669 12.5911V21.9813C29.2767 25.3399 27.0148 27.6017 23.6465 27.6017ZM9.75211 12.1309C9.72273 12.2092 9.69336 12.3561 9.69336 12.5911V21.9813C9.69336 24.2726 11.5636 26.1428 13.8548 26.1428H23.6465C26.1727 26.1428 27.8079 24.5076 27.8079 21.9813V12.5911C27.8079 12.3561 27.7786 12.219 27.7492 12.1407C27.6709 12.1799 27.5534 12.2582 27.3869 12.4246L24.8509 14.9607C24.2046 15.6069 23.0688 15.6069 22.4323 14.9607L18.9171 11.4455C18.8192 11.3476 18.6625 11.3476 18.5744 11.4455L15.069 14.9509C14.4227 15.5971 13.2869 15.5971 12.6504 14.9509L10.1144 12.4149C9.94794 12.2484 9.82065 12.1701 9.75211 12.1309Z" fill="white"/>
</svg>
