<svg width="37" height="37" viewBox="0 0 37 37" fill="none" xmlns="http://www.w3.org/2000/svg">
<rect width="37" height="37" rx="18.5" fill="#FC8654"/>
<path d="M25.6259 15.2959C25.6259 16.7936 25.1817 18.1674 24.4174 19.3139C23.3018 20.9666 21.5355 22.1338 19.48 22.4333C19.1288 22.4953 18.7673 22.5263 18.3955 22.5263C18.0236 22.5263 17.6621 22.4953 17.3109 22.4333C15.2554 22.1338 13.4891 20.9666 12.3736 19.3139C11.6092 18.1674 11.165 16.7936 11.165 15.2959C11.165 11.2985 14.3981 8.06543 18.3955 8.06543C22.3929 8.06543 25.6259 11.2985 25.6259 15.2959Z" stroke="white" stroke-width="0.925345" stroke-linecap="round" stroke-linejoin="round"/>
<path d="M27.9499 25.0776L26.2455 25.4804C25.8634 25.5734 25.5638 25.8626 25.4812 26.2448L25.1197 27.7632C24.9234 28.5895 23.8698 28.8374 23.3224 28.1867L18.3954 22.5263L13.4683 28.197C12.9209 28.8477 11.8673 28.5998 11.6711 27.7735L11.3095 26.2551C11.2166 25.8729 10.917 25.5734 10.5452 25.4907L8.84087 25.0879C8.05586 24.902 7.77697 23.9207 8.34507 23.3526L12.3735 19.3242C13.489 20.9769 15.2553 22.1441 17.3108 22.4437C17.662 22.5056 18.0235 22.5366 18.3954 22.5366C18.7672 22.5366 19.1287 22.5056 19.4799 22.4437C21.5354 22.1441 23.3017 20.9769 24.4173 19.3242L28.4457 23.3526C29.0138 23.9104 28.7349 24.8917 27.9499 25.0776Z" stroke="white" stroke-width="0.925345" stroke-linecap="round" stroke-linejoin="round"/>
<path d="M18.9943 12.1765L19.6037 13.3953C19.6864 13.5606 19.9033 13.7258 20.0995 13.7568L21.2048 13.9427C21.9071 14.0564 22.0724 14.5728 21.5663 15.079L20.7089 15.9363C20.5643 16.0809 20.4817 16.3598 20.5334 16.5664L20.7813 17.6303C20.9775 18.4669 20.5334 18.7975 19.7897 18.3533L18.7567 17.7439C18.5708 17.6303 18.2609 17.6303 18.075 17.7439L17.0421 18.3533C16.2984 18.7871 15.8542 18.4669 16.0505 17.6303L16.2984 16.5664C16.3397 16.3701 16.2674 16.0809 16.1228 15.9363L15.2655 15.079C14.7593 14.5728 14.9246 14.0667 15.627 13.9427L16.7322 13.7568C16.9181 13.7258 17.1351 13.5606 17.2177 13.3953L17.8271 12.1765C18.1267 11.5154 18.6638 11.5154 18.9943 12.1765Z" stroke="white" stroke-width="0.925345" stroke-linecap="round" stroke-linejoin="round"/>
</svg>
