<svg width="37" height="37" viewBox="0 0 37 37" fill="none" xmlns="http://www.w3.org/2000/svg">
<rect width="37" height="37" rx="18.5" fill="#FC8654"/>
<path d="M9.88477 17.7529V22.0558C9.88477 26.3588 11.6098 28.0838 15.9127 28.0838H21.0781C25.381 28.0838 27.106 26.3588 27.106 22.0558V17.7529" stroke="white" stroke-width="1.5" stroke-linecap="round" stroke-linejoin="round"/>
<path d="M18.4998 18.5003C20.2536 18.5003 21.5473 17.0724 21.3748 15.3187L20.7423 8.91699H16.2669L15.6248 15.3187C15.4523 17.0724 16.7461 18.5003 18.4998 18.5003Z" stroke="white" stroke-width="1.5" stroke-linecap="round" stroke-linejoin="round"/>
<path d="M24.547 18.5003C26.4829 18.5003 27.9012 16.9287 27.7095 15.0024L27.4412 12.367C27.0962 9.87533 26.1379 8.91699 23.627 8.91699H20.7041L21.3749 15.6349C21.5379 17.2162 22.9658 18.5003 24.547 18.5003Z" stroke="white" stroke-width="1.5" stroke-linecap="round" stroke-linejoin="round"/>
<path d="M12.4054 18.5003C13.9867 18.5003 15.4146 17.2162 15.5679 15.6349L15.7788 13.517L16.2388 8.91699H13.3159C10.805 8.91699 9.84669 9.87533 9.50169 12.367L9.24294 15.0024C9.05127 16.9287 10.4696 18.5003 12.4054 18.5003Z" stroke="white" stroke-width="1.5" stroke-linecap="round" stroke-linejoin="round"/>
<path d="M18.5003 23.292C16.8999 23.292 16.1045 24.0874 16.1045 25.6878V28.0837H20.8962V25.6878C20.8962 24.0874 20.1007 23.292 18.5003 23.292Z" stroke="white" stroke-width="1.5" stroke-linecap="round" stroke-linejoin="round"/>
</svg>
