<svg width="37" height="37" viewBox="0 0 37 37" fill="none" xmlns="http://www.w3.org/2000/svg">
<rect width="37" height="37" rx="18.5" fill="#FC5454"/>
<path d="M19 28.75C13.07 28.75 8.25 23.93 8.25 18C8.25 12.07 13.07 7.25 19 7.25C24.93 7.25 29.75 12.07 29.75 18C29.75 23.93 24.93 28.75 19 28.75ZM19 8.75C13.9 8.75 9.75 12.9 9.75 18C9.75 23.1 13.9 27.25 19 27.25C24.1 27.25 28.25 23.1 28.25 18C28.25 12.9 24.1 8.75 19 8.75Z" fill="white"/>
<path d="M19 19.75C18.59 19.75 18.25 19.41 18.25 19V14C18.25 13.59 18.59 13.25 19 13.25C19.41 13.25 19.75 13.59 19.75 14V19C19.75 19.41 19.41 19.75 19 19.75Z" fill="white"/>
<path d="M19 22.9999C18.87 22.9999 18.74 22.9699 18.62 22.9199C18.5 22.8699 18.39 22.7999 18.29 22.7099C18.2 22.6099 18.13 22.5099 18.08 22.3799C18.03 22.2599 18 22.1299 18 21.9999C18 21.8699 18.03 21.7399 18.08 21.6199C18.13 21.4999 18.2 21.3899 18.29 21.2899C18.39 21.1999 18.5 21.1299 18.62 21.0799C18.86 20.9799 19.14 20.9799 19.38 21.0799C19.5 21.1299 19.61 21.1999 19.71 21.2899C19.8 21.3899 19.87 21.4999 19.92 21.6199C19.97 21.7399 20 21.8699 20 21.9999C20 22.1299 19.97 22.2599 19.92 22.3799C19.87 22.5099 19.8 22.6099 19.71 22.7099C19.61 22.7999 19.5 22.8699 19.38 22.9199C19.26 22.9699 19.13 22.9999 19 22.9999Z" fill="white"/>
</svg>
