<svg width="24" height="24" viewBox="0 0 24 24" fill="none" xmlns="http://www.w3.org/2000/svg">
<g opacity="0.8">
<path d="M20.8391 4.60987C20.3284 4.09888 19.722 3.69352 19.0545 3.41696C18.387 3.14039 17.6716 2.99805 16.9491 2.99805C16.2267 2.99805 15.5112 3.14039 14.8438 3.41696C14.1763 3.69352 13.5699 4.09888 13.0591 4.60987L11.9991 5.66987L10.9391 4.60987C9.90745 3.57818 8.50817 2.99858 7.04914 2.99858C5.59011 2.99858 4.19083 3.57818 3.15914 4.60987C2.12745 5.64156 1.54785 7.04084 1.54785 8.49987C1.54785 9.95891 2.12745 11.3582 3.15914 12.3899L4.21914 13.4499L11.9991 21.2299L19.7791 13.4499L20.8391 12.3899C21.3501 11.8791 21.7555 11.2727 22.0321 10.6052C22.3086 9.93777 22.451 9.22236 22.451 8.49987C22.451 7.77738 22.3086 7.06198 22.0321 6.39452C21.7555 5.72706 21.3501 5.12063 20.8391 4.60987V4.60987Z" stroke="#191919" stroke-width="1.52499" stroke-linecap="round" stroke-linejoin="round"/>
</g>
</svg>
