<svg width="155" height="88" viewBox="0 0 155 88" fill="none" xmlns="http://www.w3.org/2000/svg">
<path d="M4.65625 70.375C5.34896 70.375 5.96615 70.5781 6.50781 70.9844C7.05469 71.3854 7.48177 71.9583 7.78906 72.7031C8.09635 73.4427 8.25 74.3021 8.25 75.2812C8.25 76.2708 8.09635 77.138 7.78906 77.8828C7.48177 78.6276 7.05729 79.2005 6.51562 79.6016C5.97396 80.0026 5.35417 80.2031 4.65625 80.2031C3.95833 80.2031 3.33854 80.0026 2.79688 79.6016C2.25521 79.2005 1.83333 78.6276 1.53125 77.8828C1.22917 77.138 1.07812 76.2708 1.07812 75.2812C1.07812 74.3021 1.22917 73.4427 1.53125 72.7031C1.83333 71.9583 2.25521 71.3854 2.79688 70.9844C3.33854 70.5781 3.95833 70.375 4.65625 70.375ZM2.5 75.2812C2.5 76.0104 2.58854 76.6458 2.76562 77.1875C2.94792 77.7292 3.20312 78.1458 3.53125 78.4375C3.85938 78.7292 4.23438 78.875 4.65625 78.875C5.08854 78.875 5.46875 78.7318 5.79688 78.4453C6.125 78.1536 6.3776 77.737 6.55469 77.1953C6.73698 76.6484 6.82812 76.0104 6.82812 75.2812C6.82812 74.5573 6.73698 73.9271 6.55469 73.3906C6.3776 72.849 6.125 72.4323 5.79688 72.1406C5.46875 71.849 5.08854 71.7031 4.65625 71.7031C4.23438 71.7031 3.85938 71.8516 3.53125 72.1484C3.20312 72.4401 2.94792 72.8568 2.76562 73.3984C2.58854 73.9349 2.5 74.5625 2.5 75.2812ZM10.3281 69.3281H11.8125V74.8125H14.0625V76.0625H11.8125V83.3281H10.3281V69.3281ZM19.9219 71.8438C19.9219 72.4427 20.0625 73.0234 20.3438 73.5859C20.6302 74.1432 21.0365 74.638 21.5625 75.0703C22.0938 75.4974 22.7135 75.8229 23.4219 76.0469L22.6562 77.2031C21.8594 76.9375 21.1615 76.5417 20.5625 76.0156C19.9688 75.4896 19.513 74.8724 19.1953 74.1641C18.8776 74.9297 18.4141 75.599 17.8047 76.1719C17.1953 76.7448 16.4792 77.1771 15.6562 77.4688L14.8906 76.3281C15.6042 76.0781 16.2266 75.724 16.7578 75.2656C17.2891 74.8021 17.6979 74.2734 17.9844 73.6797C18.276 73.0859 18.4219 72.474 18.4219 71.8438V71.4531H15.2812V70.25H23V71.4531H19.9219V71.8438ZM16.8594 78.4844H26.3438V83.3281H24.8594V79.6875H16.8594V78.4844ZM24.8594 69.3281H26.3438V77.7812H24.8594V69.3281ZM36.6562 73.6094C36.6562 74.349 36.7682 75.0729 36.9922 75.7812C37.2214 76.4896 37.5599 77.1302 38.0078 77.7031C38.4557 78.276 38.9948 78.7292 39.625 79.0625L38.7812 80.1719C38.1198 79.8229 37.5495 79.3333 37.0703 78.7031C36.5964 78.0729 36.2292 77.3516 35.9688 76.5391C35.7135 77.4141 35.349 78.1927 34.875 78.875C34.4062 79.5573 33.8438 80.0885 33.1875 80.4688L32.3125 79.375C32.9375 79.0104 33.4714 78.5234 33.9141 77.9141C34.3568 77.2995 34.6901 76.6198 34.9141 75.875C35.1432 75.1302 35.2604 74.375 35.2656 73.6094V73.0938H32.6719V71.8594H35.2656V69.8281H36.6562V71.8594H39.2031V73.0938H36.6562V73.6094ZM40.0625 69.5938H41.4688V74.8906H43.1406V69.3281H44.5625V83.3281H43.1406V76.1406H41.4688V82.6406H40.0625V69.5938ZM53.8281 71.5312H48.5938V73.0781H53.4375V74.25H48.5938V75.8438H49.4453C50.6641 75.8438 51.6797 75.8203 52.4922 75.7734C53.3047 75.7214 54.1146 75.625 54.9219 75.4844L55.0781 76.6875C54.1667 76.8385 53.25 76.9401 52.3281 76.9922C51.4115 77.0391 50.2214 77.0625 48.7578 77.0625H48.25H47.0938V70.3438H53.8281V71.5312ZM48.4531 80.7188C48.4531 80.1771 48.6432 79.7135 49.0234 79.3281C49.4036 78.9427 49.9505 78.6484 50.6641 78.4453C51.3776 78.2422 52.2292 78.1406 53.2188 78.1406C54.1927 78.1406 55.0365 78.2422 55.75 78.4453C56.4688 78.6484 57.0208 78.9453 57.4062 79.3359C57.7917 79.7214 57.9844 80.1823 57.9844 80.7188C57.9844 81.2604 57.7917 81.724 57.4062 82.1094C57.0208 82.5 56.4688 82.7943 55.75 82.9922C55.0365 83.1953 54.1927 83.2969 53.2188 83.2969C52.2292 83.2969 51.3776 83.1953 50.6641 82.9922C49.9505 82.7943 49.4036 82.5026 49.0234 82.1172C48.6432 81.7318 48.4531 81.2656 48.4531 80.7188ZM49.9375 80.7188C49.9323 81.1719 50.2161 81.5234 50.7891 81.7734C51.362 82.0234 52.1719 82.151 53.2188 82.1562C54.25 82.151 55.0547 82.0234 55.6328 81.7734C56.2161 81.5234 56.5052 81.1719 56.5 80.7188C56.5 80.4271 56.3698 80.1771 56.1094 79.9688C55.8542 79.7552 55.4818 79.5938 54.9922 79.4844C54.5078 79.3698 53.9323 79.3125 53.2656 79.3125C52.2031 79.3125 51.3802 79.4349 50.7969 79.6797C50.2188 79.9245 49.9323 80.2708 49.9375 80.7188ZM56.4219 69.3438H57.9062V77.9531H56.4219V69.3438ZM75.1719 74.7031H71.1406V76.3281H76.7969V77.5312H64.0312V76.3281H69.6719V74.7031H65.6562V69.9062H75.1719V74.7031ZM65.4531 78.8594H75.2344V83.3281H73.7344V80.0312H65.4531V78.8594ZM73.7031 73.5156V71.0781H67.1094V73.5156H73.7031ZM90.6562 78.1719H77.8438V76.9688H83.5156V75.6406H79.4844V72.0781H87.5625V70.8281H79.4531V69.6562H89.0469V73.1719H80.9531V74.4844H89.3281V75.6406H84.9844V76.9688H90.6562V78.1719ZM79.2812 79.1562H89.125V83.2188H87.625V80.3438H79.2812V79.1562ZM103.281 83.3594H101.797V69.3281H103.281V83.3594ZM92.1719 75.2812C92.1719 74.3021 92.3255 73.4427 92.6328 72.7031C92.9401 71.9583 93.3672 71.3854 93.9141 70.9844C94.4661 70.5781 95.0938 70.375 95.7969 70.375C96.4896 70.375 97.1094 70.5781 97.6562 70.9844C98.2031 71.3854 98.6302 71.9583 98.9375 72.7031C99.25 73.4427 99.4062 74.3021 99.4062 75.2812C99.4062 76.2708 99.25 77.138 98.9375 77.8828C98.6302 78.6276 98.2031 79.2005 97.6562 79.6016C97.1094 80.0026 96.4896 80.2031 95.7969 80.2031C95.0938 80.2031 94.4661 80.0026 93.9141 79.6016C93.3672 79.2005 92.9401 78.6276 92.6328 77.8828C92.3255 77.138 92.1719 76.2708 92.1719 75.2812ZM93.6094 75.2812C93.6094 76.0104 93.7005 76.6458 93.8828 77.1875C94.0651 77.7292 94.3203 78.1458 94.6484 78.4375C94.9818 78.7292 95.3646 78.875 95.7969 78.875C96.224 78.875 96.6016 78.7292 96.9297 78.4375C97.2578 78.1458 97.513 77.7292 97.6953 77.1875C97.8776 76.6458 97.9688 76.0104 97.9688 75.2812C97.9688 74.5625 97.8776 73.9349 97.6953 73.3984C97.513 72.8568 97.2578 72.4401 96.9297 72.1484C96.6016 71.8516 96.224 71.7031 95.7969 71.7031C95.3646 71.7031 94.9818 71.8516 94.6484 72.1484C94.3203 72.4401 94.0651 72.8568 93.8828 73.3984C93.7005 73.9349 93.6094 74.5625 93.6094 75.2812ZM112.406 79.1562H114.594V77.5312H115.969V83.1562H111.016V77.5312H112.406V79.1562ZM109.625 73.1562C109.625 72.526 109.781 71.9661 110.094 71.4766C110.406 70.987 110.841 70.6068 111.398 70.3359C111.956 70.0599 112.589 69.9219 113.297 69.9219C113.906 69.9219 114.464 70.0312 114.969 70.25C115.474 70.4635 115.893 70.7682 116.227 71.1641C116.56 71.5599 116.776 72.0156 116.875 72.5312H119.609V69.3281H121.094V76.75H119.609V73.75H116.883C116.789 74.276 116.576 74.7422 116.242 75.1484C115.909 75.5495 115.487 75.8594 114.977 76.0781C114.471 76.2969 113.911 76.4062 113.297 76.4062C112.589 76.4062 111.956 76.2708 111.398 76C110.841 75.724 110.406 75.3411 110.094 74.8516C109.781 74.3568 109.625 73.7917 109.625 73.1562ZM111.047 73.1562C111.047 73.5521 111.141 73.9062 111.328 74.2188C111.521 74.526 111.786 74.7682 112.125 74.9453C112.469 75.1172 112.859 75.2031 113.297 75.2031C113.724 75.2031 114.104 75.1172 114.438 74.9453C114.776 74.7682 115.039 74.526 115.227 74.2188C115.419 73.9062 115.516 73.5521 115.516 73.1562C115.516 72.7656 115.419 72.4193 115.227 72.1172C115.039 71.8099 114.776 71.5729 114.438 71.4062C114.104 71.2396 113.724 71.1562 113.297 71.1562C112.859 71.1562 112.469 71.2396 112.125 71.4062C111.786 71.5729 111.521 71.8099 111.328 72.1172C111.141 72.4193 111.047 72.7656 111.047 73.1562ZM114.594 82V80.2812H112.406V82H114.594ZM116.047 82.1406C116.589 81.9167 117.049 81.6172 117.43 81.2422C117.81 80.862 118.094 80.4427 118.281 79.9844C118.469 79.526 118.562 79.0573 118.562 78.5781V77.4375H120.031V78.5781C120.026 79.0781 120.117 79.5625 120.305 80.0312C120.497 80.5 120.784 80.9193 121.164 81.2891C121.549 81.6589 122.021 81.9427 122.578 82.1406L121.812 83.2656C121.198 83.0312 120.68 82.6979 120.258 82.2656C119.836 81.8385 119.51 81.3359 119.281 80.7578C119.042 81.3203 118.714 81.8177 118.297 82.25C117.88 82.6875 117.38 83.026 116.797 83.2656L116.047 82.1406ZM127.047 70.375C127.677 70.375 128.245 70.5469 128.75 70.8906C129.255 71.2344 129.664 71.7214 129.977 72.3516C130.294 72.9818 130.49 73.724 130.562 74.5781H133.453V69.3281H134.922V83.3594H133.453V75.7812H130.578C130.526 76.6823 130.344 77.4661 130.031 78.1328C129.719 78.7995 129.305 79.3125 128.789 79.6719C128.273 80.026 127.693 80.2031 127.047 80.2031C126.354 80.2031 125.737 80.0026 125.195 79.6016C124.659 79.2005 124.24 78.6276 123.938 77.8828C123.641 77.138 123.495 76.2708 123.5 75.2812C123.495 74.3021 123.641 73.4427 123.938 72.7031C124.24 71.9583 124.659 71.3854 125.195 70.9844C125.737 70.5781 126.354 70.375 127.047 70.375ZM124.906 75.2812C124.906 76.0104 124.995 76.6458 125.172 77.1875C125.354 77.7292 125.607 78.1458 125.93 78.4375C126.253 78.7292 126.625 78.875 127.047 78.875C127.469 78.875 127.841 78.7292 128.164 78.4375C128.487 78.1458 128.737 77.7292 128.914 77.1875C129.096 76.6458 129.188 76.0104 129.188 75.2812C129.188 74.5625 129.096 73.9349 128.914 73.3984C128.732 72.8568 128.479 72.4401 128.156 72.1484C127.839 71.8516 127.469 71.7031 127.047 71.7031C126.625 71.7031 126.253 71.8516 125.93 72.1484C125.612 72.4401 125.362 72.8568 125.18 73.3984C124.997 73.9349 124.906 74.5625 124.906 75.2812ZM149.891 81.5781H137.078V80.3438H140.141V76.6875C139.552 76.3646 139.096 75.9557 138.773 75.4609C138.451 74.9661 138.292 74.4115 138.297 73.7969C138.297 73.0729 138.516 72.4349 138.953 71.8828C139.391 71.3307 140 70.9036 140.781 70.6016C141.568 70.2943 142.458 70.1406 143.453 70.1406C144.448 70.1406 145.339 70.2943 146.125 70.6016C146.911 70.9036 147.523 71.3307 147.961 71.8828C148.404 72.4349 148.625 73.0729 148.625 73.7969C148.625 74.4062 148.469 74.9557 148.156 75.4453C147.844 75.9297 147.401 76.3333 146.828 76.6562V80.3438H149.891V81.5781ZM139.734 73.7969C139.734 74.2917 139.891 74.7266 140.203 75.1016C140.516 75.4766 140.953 75.7682 141.516 75.9766C142.078 76.1797 142.724 76.2812 143.453 76.2812C144.177 76.2812 144.82 76.1771 145.383 75.9688C145.951 75.7604 146.393 75.4714 146.711 75.1016C147.029 74.7266 147.188 74.2917 147.188 73.7969C147.188 73.3021 147.029 72.8698 146.711 72.5C146.393 72.125 145.951 71.8359 145.383 71.6328C144.82 71.4297 144.177 71.3281 143.453 71.3281C142.724 71.3281 142.078 71.4297 141.516 71.6328C140.953 71.8359 140.516 72.125 140.203 72.5C139.891 72.8698 139.734 73.3021 139.734 73.7969ZM145.328 80.3438V77.2344C144.745 77.3698 144.12 77.4375 143.453 77.4375C142.797 77.4375 142.182 77.3698 141.609 77.2344V80.3438H145.328ZM152.5 82.1094C152.302 82.1094 152.117 82.0599 151.945 81.9609C151.779 81.862 151.643 81.7292 151.539 81.5625C151.44 81.3958 151.391 81.2135 151.391 81.0156C151.391 80.8125 151.44 80.625 151.539 80.4531C151.638 80.2812 151.771 80.1458 151.938 80.0469C152.109 79.9427 152.297 79.8906 152.5 79.8906C152.698 79.8906 152.88 79.9401 153.047 80.0391C153.219 80.138 153.354 80.2734 153.453 80.4453C153.557 80.6172 153.609 80.8021 153.609 81C153.609 81.1979 153.557 81.3828 153.453 81.5547C153.354 81.7214 153.219 81.8568 153.047 81.9609C152.88 82.0599 152.698 82.1094 152.5 82.1094Z" fill="#999999"/>
<path d="M85.4282 27.3833V36.3712C85.4282 37.1662 85.3399 37.9171 85.1412 38.6017C84.3241 41.8479 81.6299 43.8796 77.9199 43.8796H71.9132L65.2441 48.3183C64.2503 49.0029 62.9253 48.2742 62.9253 47.0817V43.8796C60.6728 43.8796 58.7957 43.1288 57.4928 41.8258C56.1678 40.5008 55.417 38.6237 55.417 36.3712V27.3833C55.417 23.1875 58.0228 20.2946 62.042 19.9192C62.3291 19.8971 62.6162 19.875 62.9253 19.875H77.9199C82.4249 19.875 85.4282 22.8783 85.4282 27.3833Z" fill="#999999"/>
<path d="M90.1982 34.4501C93.0028 34.4501 95.3657 33.5226 96.9999 31.8663C98.6562 30.2322 99.5837 27.8693 99.5837 25.0647V13.8022C99.5837 8.61258 95.3878 4.41675 90.1982 4.41675H71.4274C66.2378 4.41675 62.042 8.61258 62.042 13.8022V15.4584C62.042 16.0767 62.5278 16.5626 63.1462 16.5626H77.9199C83.9045 16.5626 88.7407 21.3988 88.7407 27.3834V33.3459C88.7407 33.9643 89.2266 34.4501 89.8449 34.4501H90.1982V34.4501Z" fill="#999999"/>
</svg>
