<svg width="24" height="21" viewBox="0 0 24 21" fill="none" xmlns="http://www.w3.org/2000/svg">
<path d="M20.8401 2.61036C20.3294 2.09937 19.7229 1.69401 19.0555 1.41744C18.388 1.14088 17.6726 0.998535 16.9501 0.998535C16.2276 0.998535 15.5122 1.14088 14.8448 1.41744C14.1773 1.69401 13.5709 2.09937 13.0601 2.61036L12.0001 3.67036L10.9401 2.61036C9.90843 1.57867 8.50915 0.99907 7.05012 0.99907C5.59109 0.99907 4.19181 1.57867 3.16012 2.61036C2.12843 3.64205 1.54883 5.04133 1.54883 6.50036C1.54883 7.95939 2.12843 9.35867 3.16012 10.3904L4.22012 11.4504L12.0001 19.2304L19.7801 11.4504L20.8401 10.3904C21.3511 9.87961 21.7565 9.27317 22.033 8.60572C22.3096 7.93826 22.4519 7.22285 22.4519 6.50036C22.4519 5.77787 22.3096 5.06246 22.033 4.39501C21.7565 3.72755 21.3511 3.12112 20.8401 2.61036Z" fill="#FC6554" stroke="#FC6554" stroke-width="1.875" stroke-linecap="round" stroke-linejoin="round"/>
</svg>
