<svg width="24" height="24" viewBox="0 0 24 24" fill="none" xmlns="http://www.w3.org/2000/svg">
<path d="M7.10805 4C7.82734 4 8.48312 4.06296 9.07548 4.18913C9.66785 4.31518 10.1756 4.52196 10.5986 4.80875C11.0217 5.09591 11.3496 5.47763 11.5823 5.95391C11.815 6.4302 11.9314 7.01834 11.9314 7.71857C11.9314 8.47498 11.7586 9.10521 11.4131 9.60928C11.0674 10.1135 10.5563 10.5266 9.87944 10.8488C10.8102 11.1149 11.5048 11.5808 11.9632 12.2458C12.4212 12.9112 12.6509 13.7132 12.6509 14.6513C12.6509 15.4076 12.5029 16.0625 12.2065 16.6158C11.9105 17.1693 11.5118 17.6209 11.0115 17.9705C10.5107 18.3209 9.93948 18.5798 9.29788 18.7481C8.65226 18.9165 7.98739 19.0012 7.31988 19H0V4H7.10805ZM6.685 10.0716C7.27737 10.0716 7.76382 9.93162 8.14472 9.65138C8.5255 9.37138 8.71584 8.91608 8.71584 8.28585C8.71584 7.93585 8.65243 7.64857 8.52551 7.4245C8.39858 7.20055 8.22938 7.02514 8.0178 6.89933C7.80621 6.77316 7.56292 6.68599 7.28793 6.63662C7.00509 6.58702 6.71837 6.56243 6.43114 6.56316H3.32136V10.0717H6.685V10.0716ZM6.87533 16.4369C7.19955 16.4369 7.50997 16.4053 7.80609 16.3424C8.10221 16.2793 8.36303 16.1742 8.58891 16.0271C8.8143 15.8803 8.99419 15.6805 9.12832 15.4283C9.26221 15.1764 9.32922 14.8543 9.32922 14.4619C9.32922 13.6919 9.11043 13.1422 8.67345 12.8129C8.23611 12.4838 7.65791 12.3191 6.93873 12.3191H3.32136V16.4367L6.87533 16.4369ZM16.8307 16.1219C17.2819 16.5564 17.9307 16.7731 18.777 16.7731C19.3831 16.7731 19.9051 16.6229 20.3422 16.3215C20.7795 16.0208 21.0475 15.7019 21.1462 15.3656H23.7905C23.3676 16.6681 22.7185 17.5996 21.8443 18.1596C20.9697 18.72 19.9119 19 18.6709 19C17.8107 19 17.0348 18.8634 16.3438 18.5902C15.6526 18.3173 15.0672 17.9285 14.5881 17.4243C14.1085 16.9203 13.7383 16.3184 13.4774 15.6178C13.2163 14.9177 13.0861 14.1472 13.0861 13.3069C13.0861 12.4948 13.2198 11.7385 13.488 11.0381C13.7557 10.338 14.1364 9.73223 14.6305 9.22077C15.1238 8.70978 15.7128 8.30707 16.3969 8.01288C17.0808 7.71869 17.8389 7.57178 18.671 7.57178C19.6019 7.57178 20.4127 7.75029 21.104 8.10745C21.7949 8.46448 22.3626 8.9447 22.807 9.54644C23.2512 10.1488 23.5719 10.8352 23.7698 11.6052C23.9672 12.3756 24.0374 13.1808 23.9813 14.0212H16.0905C16.1326 14.9873 16.379 15.6879 16.8307 16.1219ZM20.226 10.4077C19.8665 10.0157 19.3197 9.8194 18.5866 9.8194C18.107 9.8194 17.7087 9.90014 17.3914 10.061C17.0741 10.2223 16.8201 10.4215 16.6296 10.6598C16.4394 10.898 16.3052 11.1502 16.2278 11.416C16.1502 11.6822 16.1043 11.9204 16.0902 12.1303H20.977C20.836 11.3739 20.5858 10.7999 20.226 10.4077ZM15.5772 4.76165H21.683V6.44284H15.5772V4.76165Z" fill="#999999"/>
</svg>
