<svg width="16" height="14" viewBox="0 0 16 14" fill="none" xmlns="http://www.w3.org/2000/svg">
<path d="M15.8221 13.7266C15.7967 13.7361 15.7693 13.7413 15.7397 13.7423H12.2961C11.5179 13.7528 10.8272 13.3635 10.4239 12.767C10.4207 12.7639 10.4186 12.7608 10.4165 12.7566L10.3499 12.6488L10.3256 12.609L8.58854 9.60465L8.43331 9.33571C8.5801 9.68732 8.66457 10.0703 8.67513 10.4711C8.72582 12.2961 7.19464 13.7811 5.35299 13.7811H0.264165C0.216645 13.7811 0.172294 13.7685 0.135334 13.7476C0.0138949 13.6796 -0.0420725 13.5205 0.0360709 13.3876L2.49759 9.16409C2.49759 9.16409 2.49864 9.16095 2.49864 9.15886L2.73835 8.7497C3.03086 8.32379 3.42369 7.97218 3.88305 7.72521C4.3424 7.4793 4.86829 7.33907 5.42691 7.33907C6.44488 7.33907 7.35409 7.8037 7.94967 8.53099L6.0774 5.31731L5.98975 5.16767C5.98975 5.16767 5.98447 5.16034 5.98341 5.15616C5.64761 4.51991 5.63282 3.73298 6.01404 3.0601L7.72052 0.131069C7.82295 -0.0436896 8.07744 -0.0436896 8.17987 0.131069L9.8758 3.04022L11.992 6.67038L15.9604 13.3426C16.0523 13.4912 15.9752 13.6754 15.8221 13.7266Z" fill="white"/>
</svg>
