<svg width="96" height="22" viewBox="0 0 96 22" fill="none" xmlns="http://www.w3.org/2000/svg">
<g clip-path="url(#clip0_401_2632)">
<path d="M1.66028 21.5586C1.30858 21.4485 1.02262 21.3006 0.800749 21.1149C0.578882 20.9308 0.417822 20.7172 0.315928 20.4772C0.214033 20.2373 0.163086 19.9973 0.163086 19.7574C0.163086 19.5174 0.199242 19.2873 0.273198 19.0655L6.28662 2.08523C6.41481 1.71545 6.68763 1.36046 7.10342 1.01862C7.51922 0.676779 8.14209 0.505859 8.97368 0.505859C9.80527 0.505859 10.4331 0.676779 10.8571 1.01862C11.2811 1.36046 11.5588 1.71545 11.6887 2.08523L17.7005 19.1213C17.9223 19.7672 17.9125 20.2849 17.6725 20.6728C17.4326 21.0606 17.0168 21.3384 16.4268 21.5044C15.725 21.7065 15.1383 21.6884 14.6683 21.4485C14.1966 21.2085 13.8696 20.8108 13.6855 20.257L12.4118 16.4622H5.70484L4.37528 20.3967C4.22737 20.8404 3.9036 21.1823 3.40564 21.4222C2.90767 21.6621 2.32588 21.7082 1.66028 21.5602V21.5586ZM9.0575 6.4897L6.81417 13.1096H11.2745L9.05914 6.4897H9.0575Z" fill="#EF565E" stroke="#EF565E" stroke-width="0.328692" stroke-miterlimit="10"/>
<path d="M18.9175 4.05279C18.1418 4.05279 17.5961 3.88186 17.2822 3.54002C16.9683 3.19818 16.8105 2.79718 16.8105 2.33537C16.8105 2.13158 16.8418 1.93436 16.9075 1.74043C16.9716 1.54651 17.0834 1.37066 17.2395 1.21453C17.3956 1.0584 17.6093 0.928565 17.8772 0.82667C18.145 0.724775 18.4902 0.673828 18.9158 0.673828H30.5532C31.3289 0.673828 31.8729 0.844748 32.1884 1.18659C32.5023 1.52843 32.6601 1.93929 32.6601 2.41918C32.6601 2.62297 32.6272 2.82019 32.5631 3.01412C32.499 3.20805 32.3873 3.37897 32.2311 3.52688C32.0734 3.67479 31.8614 3.79969 31.5935 3.90159C31.3256 4.00348 30.9788 4.05443 30.5548 4.05443H27.1742V19.5375C27.1742 19.9073 27.1052 20.2244 26.9671 20.4923C26.8291 20.7602 26.6483 20.9821 26.4264 21.1579C26.2046 21.3338 25.9515 21.462 25.6639 21.5458C25.3779 21.6296 25.087 21.6707 24.7912 21.6707C24.4773 21.6707 24.1765 21.6296 23.8906 21.5458C23.6046 21.462 23.3449 21.3338 23.1149 21.1579C22.8831 20.9821 22.6991 20.7602 22.561 20.4923C22.423 20.2244 22.3539 19.9056 22.3539 19.5375V4.05279H18.9175Z" fill="#EF565E" stroke="#EF565E" stroke-width="0.328692" stroke-miterlimit="10"/>
<path d="M36.812 4.05279C36.0363 4.05279 35.4907 3.88186 35.1768 3.54002C34.8629 3.19818 34.7051 2.79718 34.7051 2.33537C34.7051 2.13158 34.7363 1.93436 34.802 1.74043C34.8661 1.54651 34.9779 1.37066 35.134 1.21453C35.2902 1.0584 35.5038 0.928565 35.7717 0.82667C36.0396 0.724775 36.3847 0.673828 36.8104 0.673828H48.4477C49.2234 0.673828 49.7674 0.844748 50.0829 1.18659C50.3969 1.52843 50.5546 1.93929 50.5546 2.41918C50.5546 2.62297 50.5218 2.82019 50.4577 3.01412C50.3936 3.20805 50.2818 3.37897 50.1257 3.52688C49.9679 3.67479 49.7559 3.79969 49.488 3.90159C49.2201 4.00348 48.8734 4.05443 48.4493 4.05443H45.0687V19.5375C45.0687 19.9073 44.9997 20.2244 44.8617 20.4923C44.7236 20.7602 44.5428 20.9821 44.321 21.1579C44.0991 21.3338 43.846 21.462 43.5584 21.5458C43.2724 21.6296 42.9816 21.6707 42.6857 21.6707C42.3718 21.6707 42.0711 21.6296 41.7851 21.5458C41.4991 21.462 41.2395 21.3338 41.0094 21.1579C40.7777 20.9821 40.5936 20.7602 40.4556 20.4923C40.3175 20.2244 40.2485 19.9056 40.2485 19.5375V4.05279H36.812Z" fill="#EF565E" stroke="#EF565E" stroke-width="0.328692" stroke-miterlimit="10"/>
<path d="M53.4092 2.7203C53.4092 2.01854 53.6623 1.50085 54.1717 1.16887C54.6796 0.836888 55.2466 0.670898 55.876 0.670898C56.1718 0.670898 56.4627 0.711985 56.7487 0.795802C57.0347 0.879618 57.2894 1.00288 57.5113 1.17051C57.7331 1.3365 57.909 1.54851 58.0372 1.80817C58.1654 2.0662 58.2311 2.37188 58.2311 2.72194V19.5362C58.2311 19.906 58.1654 20.2232 58.0372 20.491C57.9073 20.7589 57.7331 20.9808 57.5113 21.1566C57.2894 21.3325 57.0363 21.4607 56.7487 21.5445C56.4627 21.6283 56.1718 21.6694 55.876 21.6694C55.5621 21.6694 55.2564 21.6283 54.9622 21.5445C54.6664 21.4607 54.4035 21.3325 54.1734 21.1566C53.9417 20.9808 53.7576 20.7589 53.6195 20.491C53.4815 20.2232 53.4125 19.9043 53.4125 19.5362V2.7203H53.4092Z" fill="#EF565E" stroke="#EF565E" stroke-width="0.328692" stroke-miterlimit="10"/>
<path d="M67.2321 18.2066H72.8577C73.5594 18.2066 74.1001 18.3825 74.4781 18.7325C74.8561 19.0842 75.0468 19.4984 75.0468 19.9783C75.0468 20.1624 75.0057 20.353 74.9219 20.5469C74.838 20.7409 74.7049 20.9216 74.5209 21.0876C74.3368 21.2536 74.11 21.3917 73.8421 21.5034C73.5742 21.6135 73.2472 21.6694 72.8593 21.6694H64.4924C63.8466 21.6694 63.342 21.5034 62.9821 21.1714C62.6222 20.8395 62.4414 20.3678 62.4414 19.7581V2.41625C62.4414 1.90021 62.6403 1.47948 63.0363 1.15572C63.4341 0.831958 63.9271 0.670898 64.5187 0.670898H72.9135C73.6153 0.670898 74.1461 0.841818 74.5061 1.18366C74.866 1.5255 75.0468 1.93636 75.0468 2.41625C75.0468 2.80411 74.8808 3.17882 74.5488 3.53874C74.2168 3.89866 73.6712 4.07944 72.9135 4.07944H67.2337V9.45191H72.5536C73.2554 9.45191 73.7731 9.6179 74.1051 9.94988C74.437 10.2819 74.603 10.6894 74.603 11.1693C74.603 11.5572 74.4502 11.9319 74.1461 12.2918C73.8421 12.6517 73.3096 12.8325 72.5536 12.8325H67.2337V18.2066H67.2321Z" fill="#EF565E" stroke="#EF565E" stroke-width="0.328692" stroke-miterlimit="10"/>
<path d="M86.4012 18.3738C86.9551 18.3738 87.476 18.3278 87.9658 18.2357C88.4556 18.1437 88.8746 17.9958 89.2263 17.792C89.5764 17.5899 89.8541 17.3302 90.0579 17.0163C90.2617 16.7024 90.362 16.3326 90.362 15.9086C90.362 15.4287 90.2469 15.0129 90.0152 14.6628C89.7835 14.3128 89.4745 14.0022 89.0866 13.7343C88.6988 13.4664 88.255 13.2314 87.7571 13.0276C87.2591 12.8255 86.7414 12.6299 86.2056 12.4458C85.3741 12.15 84.5195 11.8328 83.6435 11.491C82.7659 11.1491 81.9721 10.7432 81.2605 10.2715C80.5489 9.79985 79.9671 9.24271 79.5151 8.59519C79.0632 7.94931 78.8364 7.1736 78.8364 6.26805C78.8364 5.16036 79.1043 4.24166 79.64 3.51196C80.1758 2.78227 80.8595 2.20048 81.6894 1.76661C82.521 1.33273 83.4529 1.02376 84.4882 0.838052C85.522 0.653984 86.5376 0.560307 87.5352 0.560307C88.0332 0.560307 88.5936 0.538942 89.1968 0.629332C89.7999 0.719723 89.8213 0.754235 90.4031 0.864347C90.9848 0.974459 91.5288 1.11415 92.0383 1.28014C92.5461 1.44613 92.9389 1.64992 93.215 1.88987C93.4369 2.07393 93.5897 2.29087 93.6719 2.54068C93.7557 2.79048 93.7968 3.01728 93.7968 3.21943C93.7787 3.66316 93.667 4.00829 93.4648 4.25809C93.261 4.5079 93.0162 4.67882 92.7302 4.77085C92.4442 4.86289 92.1303 4.90069 91.7885 4.88097C91.4467 4.86289 91.1377 4.79715 90.8599 4.68704C90.1763 4.46517 89.5304 4.2811 88.9207 4.13319C88.3109 3.98528 88.237 3.91132 87.5352 3.91132C86.4078 3.91132 85.4809 4.07403 84.7512 4.39615C84.0215 4.71991 83.6566 5.25075 83.6566 5.98866C83.6566 6.41432 83.7766 6.78245 84.0166 7.09635C84.2565 7.41025 84.5753 7.69129 84.9731 7.94109C85.3708 8.1909 85.8326 8.4177 86.3585 8.61984C86.8844 8.82363 87.4333 9.01756 88.0069 9.20163L89.5304 9.72754C90.2321 9.9872 90.9191 10.2814 91.5946 10.6134C92.2684 10.9453 92.8682 11.3431 93.3958 11.8049C93.9217 12.2667 94.3474 12.8025 94.6695 13.4122C94.9916 14.0219 95.1543 14.7335 95.1543 15.5454C95.1543 16.6169 94.9423 17.5488 94.5166 18.3426C94.091 19.1364 93.496 19.7921 92.7302 20.3098C91.9643 20.8258 91.0539 21.2104 90.0021 21.4602C88.9502 21.71 87.7949 21.8349 86.5393 21.8349C84.692 21.8349 83.1324 21.613 81.8571 21.1693C80.5834 20.7256 79.6499 20.2095 79.0599 19.6179C78.8758 19.47 78.7361 19.2941 78.6441 19.092C78.5521 18.8898 78.4962 18.686 78.4781 18.4823C78.4403 18.1503 78.4781 17.8545 78.5882 17.5964C78.6983 17.3384 78.8512 17.1248 79.0451 16.9588C79.239 16.7928 79.456 16.6679 79.6959 16.5857C79.9358 16.5019 80.1857 16.4608 80.4437 16.4608C80.7214 16.4608 81.0025 16.5068 81.2884 16.5988C81.5744 16.6909 81.8193 16.8207 82.023 16.9867C82.3189 17.1905 82.6048 17.3746 82.8826 17.5406C83.1603 17.7065 83.4644 17.8495 83.7963 17.9695C84.1283 18.0895 84.5063 18.1864 84.932 18.2604C85.356 18.3343 85.8457 18.3721 86.3996 18.3721L86.4012 18.3738Z" fill="#EF565E" stroke="#EF565E" stroke-width="0.328692" stroke-miterlimit="10"/>
</g>
<defs>
<clipPath id="clip0_401_2632">
<rect width="95.3191" height="21.6592" fill="white" transform="translate(0 0.34082)"/>
</clipPath>
</defs>
</svg>
