<svg width="65" height="57" viewBox="0 0 65 57" fill="none" xmlns="http://www.w3.org/2000/svg">
<path d="M63.8368 55.8869C63.7345 55.9253 63.6237 55.9466 63.5044 55.9508H49.6107C46.4707 55.9934 43.6843 54.4085 42.0567 51.98C42.044 51.9672 42.0354 51.9544 42.0269 51.9374L41.7585 51.4986L41.6605 51.3366L34.6519 39.1046L34.0256 38.0096C34.6178 39.4411 34.9586 41.0005 35.0012 42.6323C35.2057 50.0627 29.0279 56.1085 21.5975 56.1085H1.06582C0.874091 56.1085 0.695146 56.0574 0.546027 55.9721C0.0560613 55.6952 -0.169748 55.0476 0.145534 54.5065L10.0769 37.3109C10.0769 37.3109 10.0812 37.2981 10.0812 37.2896L11.0483 35.6237C12.2285 33.8896 13.8134 32.4581 15.6668 31.4526C17.5201 30.4513 19.6419 29.8804 21.8957 29.8804C26.0029 29.8804 29.6713 31.7721 32.0742 34.7332L24.5202 21.649L24.1666 21.0397C24.1666 21.0397 24.1453 21.0099 24.141 20.9929C22.7862 18.4025 22.7265 15.1985 24.2646 12.459L31.1497 0.533636C31.563 -0.177879 32.5898 -0.177879 33.003 0.533636L39.8455 12.378L48.3837 27.1579L64.3949 54.3233C64.7656 54.9283 64.4545 55.6782 63.8368 55.8869V55.8869Z" fill="#FC6554"/>
</svg>
