<svg width="92" height="92" viewBox="0 0 92 92" fill="none" xmlns="http://www.w3.org/2000/svg">
<g filter="url(#filter0_f_1585_11475)">
<rect x="10" y="10" width="72" height="72" rx="36" fill="#FC6554" fill-opacity="0.4"/>
</g>
<g filter="url(#filter1_b_1585_11475)">
<rect x="10" y="8" width="72" height="72" rx="36" fill="#FC6554"/>
</g>
<path d="M30.1484 59.2891C30.1484 59.7344 30.2422 60.1621 30.4297 60.5723C30.6211 60.9824 30.9043 61.3496 31.2793 61.6738C31.6582 61.998 32.1172 62.25 32.6562 62.4297L32 63.4375C31.418 63.2422 30.916 62.957 30.4941 62.582C30.0762 62.207 29.748 61.7656 29.5098 61.2578C29.2715 61.8125 28.9316 62.2949 28.4902 62.7051C28.0527 63.1113 27.5312 63.418 26.9258 63.625L26.2344 62.6172C26.7852 62.4336 27.2559 62.1699 27.6465 61.8262C28.041 61.4824 28.3379 61.0918 28.5371 60.6543C28.7363 60.2129 28.8359 59.7578 28.8359 59.2891V59.1602H26.5977V58.1172H32.3516V59.1602H30.1484V59.2891ZM27.6523 64.3281H34.707V68.043H33.4062V65.3711H27.6523V64.3281ZM33.4062 57.4492H34.707V60.0977H36.1836V61.1875H34.707V63.8359H33.4062V57.4492ZM46.3789 63.5078H42.1836V64.5273H45.207V67.9141H37.8594V64.5273H40.8945V63.5078H36.7227V62.4648H46.3789V63.5078ZM37.5898 57.7656H45.4883V58.8086H44.0352V60.625H45.4297V61.6797H37.6484V60.625H39.043V58.8086H37.5898V57.7656ZM43.9414 66.8594V65.5352H39.1484V66.8594H43.9414ZM42.7227 60.625V58.8086H40.3438V60.625H42.7227ZM56.7617 63.4258H47.0938V62.3594H56.7617V63.4258ZM48.2188 66.0859C48.2188 65.6797 48.3652 65.332 48.6582 65.043C48.9551 64.7539 49.3789 64.5352 49.9297 64.3867C50.4844 64.2383 51.1445 64.1641 51.9102 64.1641C52.668 64.1641 53.3223 64.2383 53.873 64.3867C54.4238 64.5352 54.8457 64.7539 55.1387 65.043C55.4316 65.332 55.5781 65.6797 55.5781 66.0859C55.5781 66.5 55.4316 66.8516 55.1387 67.1406C54.8457 67.4336 54.4238 67.6543 53.873 67.8027C53.3262 67.9551 52.6719 68.0312 51.9102 68.0312C51.1445 68.0312 50.4844 67.9551 49.9297 67.8027C49.3789 67.6543 48.9551 67.4336 48.6582 67.1406C48.3652 66.8477 48.2188 66.4961 48.2188 66.0859ZM48.2773 57.7891H55.5898V58.8438H49.5781V60.4844H55.6484V61.5273H48.2773V57.7891ZM49.543 66.0859C49.5391 66.3984 49.7383 66.6328 50.1406 66.7891C50.543 66.9453 51.1328 67.0234 51.9102 67.0234C52.6758 67.0234 53.2598 66.9453 53.6621 66.7891C54.0684 66.6328 54.2734 66.3984 54.2773 66.0859C54.2695 65.7852 54.0625 65.5566 53.6562 65.4004C53.25 65.2402 52.668 65.1602 51.9102 65.1602C51.1406 65.1602 50.5527 65.2402 50.1465 65.4004C49.7402 65.5566 49.5391 65.7852 49.543 66.0859ZM67.1328 64.2344H57.4531V63.1797H61.6484V62.3008H58.6836V59.4883H64.6367V58.7031H58.6484V57.6836H65.9375V60.4375H59.9727V61.2812H66.1484V62.3008H62.9375V63.1797H67.1328V64.2344ZM58.5312 64.9023H65.9961V67.9727H64.6836V65.9336H58.5312V64.9023Z" fill="white"/>
<g opacity="0.3">
<path d="M47.112 42.7676C47.0941 42.1057 46.9635 41.4746 46.7346 40.8905L46.4718 40.4258C46.7203 41.0334 46.8634 41.6952 46.8813 42.3878C46.9671 45.5416 44.3742 48.1076 41.2555 48.1076H32.6381C32.5576 48.1076 32.4825 48.0859 32.4199 48.0497C32.4289 48.2794 32.613 48.4855 32.8688 48.4855H41.4844C44.6031 48.4855 47.196 45.9195 47.112 42.7676Z" fill="white"/>
<path d="M58.8507 48.0411H53.0193C51.7014 48.0592 50.5319 47.3865 49.8488 46.3557C49.8434 46.3503 49.8399 46.3449 49.8363 46.3376L49.7236 46.1514L49.9257 46.5275L50.0705 46.7825C50.0705 46.7825 50.0777 46.7969 50.0813 46.8006C50.7268 47.8331 51.8302 48.5058 53.073 48.4859H58.5789C58.8275 48.4805 59.0009 48.2545 58.9902 48.014C58.9473 48.0302 58.9008 48.0393 58.8507 48.0411V48.0411Z" fill="white"/>
</g>
<path d="M58.9846 48.0134C58.9417 48.0296 58.8952 48.0387 58.8451 48.0405H53.0137C51.6958 48.0586 50.5263 47.3859 49.8432 46.3551C49.8379 46.3497 49.8343 46.3443 49.8307 46.337L49.7181 46.1508L49.6769 46.0821L46.7353 40.8903L46.4724 40.4256C46.721 41.0332 46.8641 41.695 46.8819 42.3876C46.9678 45.5414 44.3748 48.1074 41.2562 48.1074H32.6387C32.5583 48.1074 32.4832 48.0857 32.4206 48.0495C32.2149 47.932 32.1202 47.6571 32.2525 47.4275L36.4208 40.129C36.4208 40.129 36.4226 40.1236 36.4226 40.12L36.8285 39.4129C37.3239 38.6769 37.9891 38.0693 38.767 37.6426C39.5449 37.2176 40.4354 36.9753 41.3814 36.9753C43.1052 36.9753 44.6449 37.7782 45.6534 39.035L42.4829 33.4816L42.3345 33.223C42.3345 33.223 42.3255 33.2103 42.3238 33.2031C41.7551 32.1036 41.7301 30.7438 42.3756 29.581L45.2654 24.5195C45.4388 24.2175 45.8698 24.2175 46.0433 24.5195L48.9151 29.5466L52.4987 35.8198L59.2189 47.3497C59.3745 47.6065 59.2439 47.9248 58.9846 48.0134V48.0134Z" fill="white"/>
<path opacity="0.4" fill-rule="evenodd" clip-rule="evenodd" d="M54.5556 20.207C54.2434 20.6581 54.0605 21.2054 54.0605 21.7954V28.2758C54.0605 29.8191 55.3117 31.0702 56.855 31.0702H62.4179V47.4805C62.4179 51.0816 59.4987 54.0008 55.8976 54.0008H35.5203C31.9193 54.0008 29 51.0816 29 47.4805V26.7274C29 23.1263 31.9193 20.207 35.5203 20.207H54.5556Z" fill="white"/>
<path d="M61.875 19H56.625C54.3571 19 53 20.3571 53 22.625V27.875C53 30.1429 54.3571 31.5 56.625 31.5H61.875C64.1429 31.5 65.5 30.1429 65.5 27.875V22.625C65.5 20.3571 64.1429 19 61.875 19ZM63.5536 26.0179C63.375 26.1964 63.1071 26.3214 62.8214 26.3393H60.3036L60.3214 28.8214C60.3036 29.125 60.1964 29.375 59.9821 29.5893C59.8036 29.7679 59.5357 29.8929 59.25 29.8929C58.6607 29.8929 58.1786 29.4107 58.1786 28.8214V26.3214L55.6786 26.3393C55.0893 26.3393 54.6071 25.8393 54.6071 25.25C54.6071 24.6607 55.0893 24.1786 55.6786 24.1786L58.1786 24.1964V21.6964C58.1786 21.1071 58.6607 20.6071 59.25 20.6071C59.8393 20.6071 60.3214 21.1071 60.3214 21.6964L60.3036 24.1786H62.8214C63.4107 24.1786 63.8929 24.6607 63.8929 25.25C63.875 25.5536 63.75 25.8036 63.5536 26.0179Z" fill="white"/>
<defs>
<filter id="filter0_f_1585_11475" x="0" y="0" width="92" height="92" filterUnits="userSpaceOnUse" color-interpolation-filters="sRGB">
<feFlood flood-opacity="0" result="BackgroundImageFix"/>
<feBlend mode="normal" in="SourceGraphic" in2="BackgroundImageFix" result="shape"/>
<feGaussianBlur stdDeviation="5" result="effect1_foregroundBlur_1585_11475"/>
</filter>
<filter id="filter1_b_1585_11475" x="4" y="2" width="84" height="84" filterUnits="userSpaceOnUse" color-interpolation-filters="sRGB">
<feFlood flood-opacity="0" result="BackgroundImageFix"/>
<feGaussianBlur in="BackgroundImageFix" stdDeviation="3"/>
<feComposite in2="SourceAlpha" operator="in" result="effect1_backgroundBlur_1585_11475"/>
<feBlend mode="normal" in="SourceGraphic" in2="effect1_backgroundBlur_1585_11475" result="shape"/>
</filter>
</defs>
</svg>
