<svg width="25" height="25" viewBox="0 0 25 25" fill="none" xmlns="http://www.w3.org/2000/svg">
<path d="M22.917 6.24998V8.77081C22.917 10.4166 21.8753 11.4583 20.2295 11.4583H16.667V4.17706C16.667 3.02081 17.6149 2.08331 18.7712 2.08331C19.9066 2.09373 20.9483 2.55206 21.6983 3.30206C22.4483 4.06248 22.917 5.10415 22.917 6.24998Z" stroke="#191919" stroke-width="1.5" stroke-miterlimit="10" stroke-linecap="round" stroke-linejoin="round"/>
<path d="M2.08301 7.29165V21.875C2.08301 22.7396 3.06215 23.2291 3.74965 22.7083L5.53092 21.375C5.94759 21.0625 6.53093 21.1041 6.90593 21.4791L8.63507 23.2187C9.04132 23.625 9.70803 23.625 10.1143 23.2187L11.8643 21.4687C12.2289 21.1041 12.8122 21.0625 13.2184 21.375L14.9997 22.7083C15.6872 23.2187 16.6663 22.7291 16.6663 21.875V4.16665C16.6663 3.02081 17.6038 2.08331 18.7497 2.08331H7.29134H6.24967C3.12467 2.08331 2.08301 3.9479 2.08301 6.24998V7.29165Z" stroke="#191919" stroke-width="1.5" stroke-miterlimit="10" stroke-linecap="round" stroke-linejoin="round"/>
<path d="M6.25 9.375H12.5" stroke="#191919" stroke-width="1.5" stroke-linecap="round" stroke-linejoin="round"/>
<path d="M7.03125 13.5417H11.7187" stroke="#191919" stroke-width="1.5" stroke-linecap="round" stroke-linejoin="round"/>
</svg>
